<svg xmlns="http://www.w3.org/2000/svg" xmlns:xlink="http://www.w3.org/1999/xlink" width="1080" zoomAndPan="magnify" viewBox="0 0 810 809.999993" height="1080" preserveAspectRatio="xMidYMid meet" version="1.0"><defs><clipPath id="43666f2774"><path d="M 25.3125 0 L 785.0625 0 L 785.0625 810 L 25.3125 810 Z M 25.3125 0 " clip-rule="nonzero"/></clipPath></defs><g clip-path="url(#43666f2774)"><path fill="#00980d" d="M 785.0625 405 L 709.085938 405 L 709.085938 202.5 L 506.488281 0 L 101.289062 0 L 101.289062 405 L 25.3125 405 L 25.3125 658.125 L 101.289062 658.125 L 101.289062 810 L 709.085938 810 L 709.085938 658.125 L 785.0625 658.125 L 785.0625 405 " fill-opacity="1" fill-rule="nonzero"/></g><path fill="#ffffff" d="M 126.589844 784.6875 L 683.746094 784.6875 L 683.746094 658.125 L 126.589844 658.125 Z M 506.488281 35.832031 L 506.488281 202.5 L 673.238281 202.5 Z M 481.164062 227.8125 L 481.164062 25.3125 L 126.589844 25.3125 L 126.589844 405 L 683.746094 405 L 683.746094 227.8125 Z M 613.183594 498.285156 C 613.183594 484.320312 608.207031 473.742188 599.210938 466.539062 C 588.398438 457.992188 572.625 454.597656 550.089844 454.597656 C 531.835938 454.597656 515.390625 455.960938 504.355469 457.761719 L 504.355469 607.5 L 538.363281 607.5 L 538.363281 547.832031 L 548.75 547.832031 C 562.699219 548.050781 569.238281 553.230469 573.285156 572.148438 C 577.8125 590.835938 581.398438 603.226562 583.902344 607.5 L 619.042969 607.5 C 616.097656 601.644531 611.371094 581.828125 606.644531 564.710938 C 602.816406 550.761719 596.957031 540.621094 586.375 536.347656 L 586.375 535.660156 C 599.433594 530.945312 613.183594 517.660156 613.183594 498.285156 Z M 551.894531 523.058594 L 538.363281 523.058594 L 538.363281 481.171875 C 540.859375 480.722656 545.585938 480.046875 553.925781 480.046875 C 569.699219 480.269531 579.152344 487.25 579.152344 501.222656 C 579.152344 514.511719 569.007812 523.058594 551.894531 523.058594 Z M 279.628906 481.628906 C 291.796875 481.628906 301.46875 484.320312 308.460938 487.25 L 315.4375 460.011719 C 309.351562 456.855469 295.828125 453.25 278.046875 453.25 C 232.089844 453.25 195.144531 482.078125 195.144531 533.859375 C 195.144531 577.089844 222.175781 609.75 274.652344 609.75 C 293.128906 609.75 307.328125 606.375 313.636719 603.226562 L 308.460938 576.429688 C 301.6875 579.121094 290.210938 581.390625 279.847656 581.390625 C 249.203125 581.390625 231.175781 562.238281 231.175781 531.835938 C 231.175781 498.066406 252.347656 481.628906 279.628906 481.628906 Z M 476.140625 528.019531 C 476.140625 501.222656 466.226562 482.535156 450.441406 470.8125 C 435.808594 459.777344 417.105469 454.597656 388.269531 454.597656 C 370.9375 454.597656 354.492188 455.738281 341.851562 457.761719 L 341.851562 606.816406 C 350.4375 607.949219 363.046875 609.082031 380.828125 609.082031 C 410.582031 609.082031 434.917969 602.769531 450.890625 589.480469 C 465.554688 577.089844 476.140625 557.058594 476.140625 528.019531 Z M 388.269531 582.285156 C 383.996094 582.285156 379.269531 582.285156 376.324219 581.609375 L 376.324219 482.300781 C 379.269531 481.628906 384.214844 480.953125 391.886719 480.953125 C 421.386719 480.953125 439.863281 497.609375 439.636719 529.144531 C 439.636719 565.386719 419.355469 582.507812 388.269531 582.285156 " fill-opacity="1" fill-rule="nonzero"/></svg>