<svg xmlns="http://www.w3.org/2000/svg" xmlns:xlink="http://www.w3.org/1999/xlink" width="1080" zoomAndPan="magnify" viewBox="0 0 810 809.999993" height="1080" preserveAspectRatio="xMidYMid meet" version="1.0"><defs><clipPath id="aea85835e0"><path d="M 14.046875 14.046875 L 796.296875 14.046875 L 796.296875 796.296875 L 14.046875 796.296875 Z M 14.046875 14.046875 " clip-rule="nonzero"/></clipPath></defs><g clip-path="url(#aea85835e0)"><path fill="#4fc4c9" d="M 796.296875 405.171875 C 796.296875 621.175781 621.175781 796.296875 405.171875 796.296875 C 189.167969 796.296875 14.046875 621.175781 14.046875 405.171875 C 14.046875 189.167969 189.167969 14.046875 405.171875 14.046875 C 621.175781 14.046875 796.296875 189.167969 796.296875 405.171875 " fill-opacity="1" fill-rule="nonzero"/></g><path fill="#ffffff" d="M 281.855469 449.003906 C 272.242188 461.851562 259.769531 475.683594 243.273438 486.226562 C 227.085938 496.449219 208.984375 504.667969 187.574219 504.667969 C 167.8125 504.667969 151.03125 494.125 141.742188 485.566406 C 127.980469 472.71875 120.691406 453.613281 118.546875 436.15625 C 111.792969 381.15625 145.421875 309.015625 197.546875 277.386719 C 209.5 270.132812 222.886719 266.523438 235.074219 266.523438 C 260.109375 266.523438 278.800781 284.355469 281.40625 305.65625 C 283.765625 324.867188 276.066406 341.449219 254.675781 352.207031 C 243.757812 357.691406 238.34375 357.441406 236.644531 354.816406 C 235.5 353.0625 236.144531 350.117188 238.34375 348.273438 C 258.445312 331.550781 258.839844 317.824219 256.460938 298.472656 C 254.925781 286.019531 246.707031 278.046875 237.484375 278.046875 C 197.957031 278.046875 141.277344 366.324219 149.15625 430.5625 C 152.230469 455.597656 167.652344 484.582031 199.261719 484.582031 C 209.804688 484.582031 220.972656 481.617188 230.910156 476.667969 C 252.925781 465.480469 262.769531 457.242188 276.027344 439.125 C 277.726562 436.816406 279.386719 434.171875 281.355469 431.546875 C 282.730469 429.242188 284.625 428.582031 286.269531 428.582031 C 288.25 428.582031 290.09375 430.222656 290.414062 432.867188 C 290.664062 434.835938 290.039062 437.800781 287.769531 440.765625 C 285.785156 443.410156 283.839844 446.359375 281.855469 449.003906 " fill-opacity="1" fill-rule="nonzero"/><path fill="#ffffff" d="M 341.609375 481.277344 C 331.726562 481.277344 326.136719 476.003906 324.1875 468.105469 C 317.648438 476.667969 309 481.277344 299.777344 481.277344 C 284.625 481.277344 270.203125 468.429688 268.09375 451.308594 C 264.414062 421.324219 290.289062 382.460938 329.15625 382.460938 C 345.613281 382.460938 359.28125 389.054688 360.890625 402.222656 C 362.910156 418.699219 348.828125 421.988281 343.558594 421.988281 C 338.949219 421.988281 331.53125 420.683594 331.011719 416.394531 C 330.441406 411.78125 340.984375 414.410156 339.679688 403.867188 C 338.875 397.289062 332.015625 394.984375 325.421875 394.984375 C 301.707031 394.984375 288.609375 427.917969 291.128906 448.34375 C 292.253906 457.5625 297.007812 466.785156 305.566406 466.785156 C 312.484375 466.785156 322.472656 456.902344 326.296875 442.410156 C 328.707031 432.527344 338.109375 425.953125 345.023438 425.953125 C 348.648438 425.953125 351.152344 427.597656 351.597656 431.207031 C 351.757812 432.527344 351.632812 434.171875 351.222656 436.15625 C 350.4375 440.445312 347.132812 454.6875 347.273438 457.636719 C 347.398438 460.207031 348.882812 463.746094 353.367188 463.746094 C 358.316406 463.746094 381.636719 450.167969 395.183594 431.726562 C 396.289062 430.082031 398.46875 429.082031 400.453125 429.082031 C 402.4375 429.082031 404.207031 430.082031 404.472656 432.386719 C 404.761719 434.691406 403.8125 437.65625 401.007812 441.605469 C 385.515625 463.015625 353.136719 481.277344 341.609375 481.277344 " fill-opacity="1" fill-rule="nonzero"/><path fill="#ffffff" d="M 668.621094 470.089844 C 669.78125 479.632812 674.175781 485.886719 678.25 489.515625 C 679.734375 490.835938 680.59375 492.480469 680.71875 493.464844 C 681.039062 496.109375 679.019531 498.414062 675.714844 498.414062 C 674.730469 498.414062 673.410156 498.414062 672.335938 497.753906 C 655.359375 490.835938 648.335938 479.3125 646.335938 468.429688 C 639.777344 476.667969 631.113281 481.277344 622.230469 481.277344 C 607.078125 481.277344 592.28125 468.105469 590.171875 450.96875 C 586.527344 421.324219 613.386719 382.460938 651.589844 382.460938 C 667.742188 382.460938 681.683594 388.730469 683.289062 401.902344 C 685.363281 418.699219 670.941406 421.988281 666.011719 421.988281 C 661.0625 421.988281 653.644531 420.683594 653.125 416.394531 C 652.609375 412.105469 663.417969 414.410156 662.167969 404.207031 C 661.363281 397.613281 654.449219 394.984375 647.855469 394.984375 C 625.785156 394.984375 610.617188 424.292969 613.527344 448.023438 C 614.707031 457.5625 619.121094 466.785156 627.699219 466.785156 C 634.613281 466.785156 644.925781 456.902344 648.75 442.410156 C 651.195312 432.867188 660.558594 425.953125 667.476562 425.953125 C 670.765625 425.953125 673.605469 427.597656 674.085938 431.546875 C 674.335938 433.53125 673.550781 437.800781 669.851562 453.292969 C 668.351562 459.871094 668.046875 465.480469 668.621094 470.089844 " fill-opacity="1" fill-rule="nonzero"/><path fill="#ffffff" d="M 463.585938 464.085938 C 468.859375 464.085938 486.03125 457.527344 499.574219 439.070312 C 501.023438 437.425781 502.882812 436.441406 504.847656 436.441406 C 507.152344 436.441406 508.921875 437.425781 509.261719 440.070312 C 509.492188 442.035156 508.207031 445.003906 505.402344 448.953125 C 489.925781 470.375 463.765625 481.242188 452.238281 481.242188 C 440.375 481.242188 433.886719 473.984375 432.566406 463.121094 C 432.117188 459.496094 432.242188 455.222656 432.992188 450.613281 C 436.925781 426.222656 445.929688 411.085938 445.359375 406.457031 C 445.199219 405.152344 444.464844 404.492188 443.464844 404.492188 C 435.890625 404.492188 409.28125 431.832031 405.242188 449.953125 L 402.078125 464.445312 C 400.042969 474.648438 389.980469 481.242188 383.066406 481.242188 C 379.777344 481.242188 377.257812 479.597656 376.8125 475.96875 C 376.652344 474.648438 376.777344 473.003906 377.207031 471.019531 C 377.207031 471.019531 390.339844 403.492188 390.945312 400.257812 C 392.414062 392.324219 395.273438 384.15625 411.40625 384.15625 C 414.714844 384.15625 417.214844 385.800781 417.699219 389.75 C 417.859375 391.074219 417.734375 392.714844 417.324219 394.699219 L 412.820312 415.035156 C 426.972656 396.253906 448.988281 382.421875 462.175781 382.421875 C 467.769531 382.421875 472.09375 385.390625 472.824219 391.324219 C 473.21875 394.609375 472.253906 400.203125 470.074219 406.457031 C 465.375 419.304688 460.101562 438.605469 456.617188 455.222656 C 455.867188 458.742188 457.101562 464.085938 463.585938 464.085938 " fill-opacity="1" fill-rule="nonzero"/><path fill="#ffffff" d="M 553.683594 385.425781 C 553.683594 394.644531 558.292969 404.207031 564.226562 410.460938 C 566.53125 404.207031 567.855469 397.953125 567.855469 391.679688 C 567.855469 379.832031 563.242188 374.5625 559.617188 374.5625 C 555.328125 374.5625 553.683594 380.492188 553.683594 385.425781 Z M 573.785156 434.835938 C 571.804688 434.835938 570.160156 434.835938 568.175781 434.511719 C 553.363281 455.921875 537.871094 470.75 526.023438 477.328125 C 521.070312 479.972656 516.460938 481.277344 513.171875 481.277344 C 510.527344 481.277344 507.5625 480.632812 506.257812 478.3125 C 500.988281 469.429688 498.683594 451.308594 498.683594 432.527344 C 498.683594 418.699219 499.664062 407.496094 502.292969 399.257812 C 504.9375 390.695312 515.800781 382.460938 523.054688 382.460938 C 526.683594 382.460938 529.308594 384.441406 529.308594 388.390625 C 529.308594 389.714844 528.988281 391.359375 528.328125 393.003906 C 523.378906 407.496094 520.75 421.003906 520.75 434.511719 C 520.75 442.089844 522.394531 454.277344 524.039062 460.53125 C 524.378906 461.851562 524.699219 463.175781 526.023438 463.175781 C 528.328125 463.175781 543.800781 448.023438 555.007812 429.5625 C 545.125 423.308594 539.511719 411.78125 539.511719 397.613281 C 539.511719 373.898438 553.683594 361.714844 567.515625 361.714844 C 578.398438 361.714844 588.277344 369.609375 588.277344 385.425781 C 588.277344 395.308594 584.3125 406.511719 578.71875 417.375 C 578.71875 417.375 581.023438 417.714844 582.007812 417.714844 C 590.582031 417.714844 597.160156 413.75 600.789062 409.476562 C 603.433594 406.511719 605.738281 404.527344 608.042969 404.527344 C 609.6875 404.527344 610.347656 405.851562 610.347656 407.496094 C 610.347656 408.496094 610.007812 410.140625 609.023438 411.78125 C 601.125 425.953125 585.972656 434.835938 573.785156 434.835938 " fill-opacity="1" fill-rule="nonzero"/></svg>