<svg xmlns="http://www.w3.org/2000/svg" xmlns:xlink="http://www.w3.org/1999/xlink" width="1080" zoomAndPan="magnify" viewBox="0 0 810 809.999993" height="1080" preserveAspectRatio="xMidYMid meet" version="1.0"><defs><clipPath id="87244a7561"><path d="M 50.625 0 L 759.375 0 L 759.375 266 L 50.625 266 Z M 50.625 0 " clip-rule="nonzero"/></clipPath><clipPath id="47f48e18ea"><path d="M 151 278 L 759.375 278 L 759.375 810 L 151 810 Z M 151 278 " clip-rule="nonzero"/></clipPath><clipPath id="6106eb2ec0"><path d="M 734 227 L 759.375 227 L 759.375 254 L 734 254 Z M 734 227 " clip-rule="nonzero"/></clipPath></defs><path fill="#dc68ff" d="M 594.84375 12.65625 L 746.71875 164.53125 L 594.84375 164.53125 Z M 594.84375 12.65625 " fill-opacity="1" fill-rule="nonzero"/><path fill="#410d57" d="M 746.71875 164.53125 L 746.71875 797.34375 L 164.53125 797.34375 L 164.53125 12.65625 L 594.84375 12.65625 L 594.84375 164.53125 Z M 746.71875 164.53125 " fill-opacity="1" fill-rule="nonzero"/><path fill="#2e0a3b" d="M 189.84375 113.90625 L 189.84375 721.40625 C 189.84375 723.0625 189.925781 724.71875 190.085938 726.367188 C 190.25 728.019531 190.492188 729.65625 190.816406 731.28125 C 191.140625 732.910156 191.542969 734.515625 192.023438 736.101562 C 192.503906 737.6875 193.0625 739.246094 193.699219 740.78125 C 194.332031 742.3125 195.039062 743.808594 195.820312 745.269531 C 196.601562 746.734375 197.453125 748.152344 198.375 749.53125 C 199.296875 750.910156 200.285156 752.242188 201.335938 753.523438 C 202.386719 754.804688 203.5 756.03125 204.671875 757.203125 C 205.84375 758.375 207.070312 759.488281 208.351562 760.539062 C 209.632812 761.589844 210.964844 762.578125 212.34375 763.5 C 213.722656 764.421875 215.140625 765.273438 216.605469 766.054688 C 218.066406 766.835938 219.5625 767.542969 221.09375 768.175781 C 222.628906 768.8125 224.1875 769.371094 225.773438 769.851562 C 227.359375 770.332031 228.964844 770.734375 230.59375 771.058594 C 232.21875 771.382812 233.855469 771.625 235.507812 771.789062 C 237.15625 771.949219 238.8125 772.03125 240.46875 772.03125 L 670.78125 772.03125 C 672.4375 772.03125 674.09375 771.949219 675.742188 771.789062 C 677.394531 771.625 679.03125 771.382812 680.65625 771.058594 C 682.285156 770.734375 683.890625 770.332031 685.476562 769.851562 C 687.0625 769.371094 688.621094 768.8125 690.15625 768.175781 C 691.6875 767.542969 693.183594 766.835938 694.644531 766.054688 C 696.109375 765.273438 697.527344 764.421875 698.90625 763.5 C 700.285156 762.578125 701.617188 761.589844 702.898438 760.539062 C 704.179688 759.488281 705.40625 758.375 706.578125 757.203125 C 707.75 756.03125 708.863281 754.804688 709.914062 753.523438 C 710.964844 752.242188 711.953125 750.910156 712.875 749.53125 C 713.796875 748.152344 714.648438 746.734375 715.429688 745.269531 C 716.210938 743.808594 716.917969 742.3125 717.550781 740.78125 C 718.1875 739.246094 718.746094 737.6875 719.226562 736.101562 C 719.707031 734.515625 720.109375 732.910156 720.433594 731.28125 C 720.757812 729.65625 721 728.019531 721.164062 726.367188 C 721.324219 724.71875 721.40625 723.0625 721.40625 721.40625 L 721.40625 694.535156 C 189.84375 661.78125 189.84375 113.90625 189.84375 113.90625 Z M 189.84375 113.90625 " fill-opacity="1" fill-rule="nonzero"/><path fill="#320b40" d="M 607.5 164.53125 L 746.71875 164.53125 L 746.71875 189.84375 L 607.5 189.84375 Z M 607.5 164.53125 " fill-opacity="1" fill-rule="nonzero"/><path fill="#dd76fd" d="M 63.28125 50.625 L 518.90625 50.625 L 518.90625 253.125 L 63.28125 253.125 Z M 63.28125 50.625 " fill-opacity="1" fill-rule="nonzero"/><path fill="#320b40" d="M 164.53125 253.125 L 493.59375 253.125 L 493.59375 291.09375 L 164.53125 291.09375 Z M 164.53125 253.125 " fill-opacity="1" fill-rule="nonzero"/><path fill="#dc68ff" d="M 392.34375 392.34375 L 303.75 392.34375 L 303.75 670.78125 L 354.375 670.78125 L 354.375 569.53125 L 392.34375 569.53125 C 393.792969 569.53125 395.242188 569.496094 396.691406 569.425781 C 398.140625 569.351562 399.585938 569.246094 401.027344 569.105469 C 402.46875 568.960938 403.910156 568.785156 405.34375 568.574219 C 406.777344 568.359375 408.207031 568.113281 409.628906 567.828125 C 411.050781 567.546875 412.464844 567.226562 413.871094 566.875 C 415.277344 566.523438 416.671875 566.136719 418.0625 565.714844 C 419.449219 565.296875 420.824219 564.839844 422.191406 564.351562 C 423.554688 563.863281 424.90625 563.34375 426.246094 562.789062 C 427.585938 562.234375 428.910156 561.644531 430.222656 561.023438 C 431.53125 560.40625 432.828125 559.753906 434.105469 559.070312 C 435.386719 558.386719 436.644531 557.671875 437.890625 556.925781 C 439.132812 556.179688 440.359375 555.40625 441.5625 554.601562 C 442.769531 553.796875 443.953125 552.960938 445.117188 552.097656 C 446.285156 551.234375 447.425781 550.339844 448.546875 549.421875 C 449.667969 548.5 450.765625 547.554688 451.839844 546.582031 C 452.914062 545.609375 453.964844 544.609375 454.988281 543.582031 C 456.015625 542.558594 457.011719 541.507812 457.988281 540.433594 C 458.960938 539.359375 459.90625 538.261719 460.828125 537.140625 C 461.746094 536.019531 462.640625 534.878906 463.503906 533.710938 C 464.367188 532.546875 465.199219 531.363281 466.007812 530.15625 C 466.8125 528.953125 467.585938 527.726562 468.332031 526.484375 C 469.078125 525.238281 469.792969 523.980469 470.476562 522.699219 C 471.160156 521.421875 471.8125 520.125 472.429688 518.816406 C 473.050781 517.503906 473.640625 516.179688 474.195312 514.839844 C 474.75 513.5 475.269531 512.148438 475.757812 510.785156 C 476.246094 509.417969 476.703125 508.042969 477.121094 506.65625 C 477.542969 505.265625 477.929688 503.871094 478.28125 502.464844 C 478.632812 501.058594 478.953125 499.644531 479.234375 498.222656 C 479.519531 496.800781 479.765625 495.371094 479.980469 493.9375 C 480.191406 492.503906 480.367188 491.0625 480.511719 489.621094 C 480.652344 488.179688 480.757812 486.734375 480.832031 485.285156 C 480.902344 483.835938 480.9375 482.386719 480.9375 480.9375 C 480.9375 479.488281 480.902344 478.039062 480.832031 476.589844 C 480.757812 475.140625 480.652344 473.695312 480.511719 472.253906 C 480.367188 470.8125 480.191406 469.371094 479.980469 467.9375 C 479.765625 466.503906 479.519531 465.074219 479.234375 463.652344 C 478.953125 462.230469 478.632812 460.816406 478.28125 459.410156 C 477.929688 458.003906 477.542969 456.609375 477.121094 455.21875 C 476.703125 453.832031 476.246094 452.457031 475.757812 451.089844 C 475.269531 449.726562 474.75 448.375 474.195312 447.035156 C 473.640625 445.695312 473.050781 444.371094 472.429688 443.058594 C 471.8125 441.746094 471.160156 440.453125 470.476562 439.175781 C 469.792969 437.894531 469.078125 436.632812 468.332031 435.390625 C 467.585938 434.148438 466.8125 432.921875 466.007812 431.71875 C 465.199219 430.511719 464.367188 429.328125 463.503906 428.164062 C 462.640625 426.996094 461.746094 425.855469 460.828125 424.734375 C 459.90625 423.613281 458.960938 422.515625 457.988281 421.441406 C 457.011719 420.367188 456.015625 419.316406 454.988281 418.292969 C 453.964844 417.265625 452.914062 416.269531 451.839844 415.292969 C 450.765625 414.320312 449.667969 413.375 448.546875 412.453125 C 447.425781 411.535156 446.285156 410.640625 445.117188 409.777344 C 443.953125 408.914062 442.769531 408.078125 441.5625 407.273438 C 440.359375 406.46875 439.132812 405.695312 437.890625 404.949219 C 436.644531 404.203125 435.386719 403.488281 434.105469 402.804688 C 432.828125 402.121094 431.53125 401.46875 430.222656 400.851562 C 428.910156 400.230469 427.585938 399.640625 426.246094 399.085938 C 424.90625 398.53125 423.554688 398.011719 422.191406 397.523438 C 420.824219 397.035156 419.449219 396.578125 418.0625 396.160156 C 416.671875 395.738281 415.277344 395.351562 413.871094 395 C 412.464844 394.644531 411.050781 394.328125 409.628906 394.046875 C 408.207031 393.761719 406.777344 393.515625 405.34375 393.300781 C 403.910156 393.089844 402.46875 392.914062 401.027344 392.769531 C 399.585938 392.628906 398.140625 392.523438 396.691406 392.449219 C 395.242188 392.378906 393.792969 392.34375 392.34375 392.34375 Z M 392.34375 518.90625 L 354.375 518.90625 L 354.375 442.96875 L 392.34375 442.96875 C 393.585938 442.96875 394.828125 443.03125 396.066406 443.152344 C 397.304688 443.273438 398.53125 443.457031 399.75 443.699219 C 400.96875 443.941406 402.175781 444.242188 403.367188 444.605469 C 404.554688 444.964844 405.726562 445.382812 406.875 445.859375 C 408.023438 446.335938 409.144531 446.867188 410.242188 447.453125 C 411.339844 448.039062 412.402344 448.675781 413.4375 449.367188 C 414.472656 450.058594 415.46875 450.796875 416.429688 451.585938 C 417.390625 452.375 418.3125 453.210938 419.191406 454.089844 C 420.070312 454.96875 420.90625 455.890625 421.695312 456.851562 C 422.484375 457.8125 423.222656 458.808594 423.914062 459.84375 C 424.605469 460.878906 425.242188 461.941406 425.828125 463.039062 C 426.414062 464.136719 426.945312 465.257812 427.421875 466.40625 C 427.898438 467.554688 428.316406 468.726562 428.675781 469.914062 C 429.039062 471.105469 429.339844 472.308594 429.582031 473.53125 C 429.824219 474.75 430.007812 475.976562 430.128906 477.214844 C 430.25 478.453125 430.3125 479.695312 430.3125 480.9375 C 430.3125 482.179688 430.25 483.421875 430.128906 484.660156 C 430.007812 485.898438 429.824219 487.125 429.582031 488.34375 C 429.339844 489.5625 429.039062 490.769531 428.675781 491.960938 C 428.316406 493.148438 427.898438 494.320312 427.421875 495.46875 C 426.945312 496.617188 426.414062 497.738281 425.828125 498.835938 C 425.242188 499.933594 424.605469 500.996094 423.914062 502.03125 C 423.222656 503.066406 422.484375 504.0625 421.695312 505.023438 C 420.90625 505.984375 420.070312 506.90625 419.191406 507.785156 C 418.3125 508.664062 417.390625 509.5 416.429688 510.289062 C 415.46875 511.078125 414.472656 511.816406 413.4375 512.507812 C 412.402344 513.199219 411.339844 513.835938 410.242188 514.421875 C 409.144531 515.007812 408.023438 515.539062 406.875 516.015625 C 405.726562 516.492188 404.554688 516.910156 403.367188 517.269531 C 402.175781 517.632812 400.96875 517.933594 399.75 518.175781 C 398.53125 518.417969 397.304688 518.601562 396.066406 518.722656 C 394.828125 518.84375 393.585938 518.90625 392.34375 518.90625 Z M 392.34375 518.90625 " fill-opacity="1" fill-rule="nonzero"/><path fill="#dc68ff" d="M 556.875 468.28125 L 518.90625 468.28125 L 518.90625 670.78125 L 569.53125 670.78125 L 569.53125 544.21875 C 570.859375 542.121094 572.324219 540.125 573.921875 538.226562 C 575.523438 536.332031 577.242188 534.550781 579.085938 532.886719 C 580.925781 531.222656 582.871094 529.691406 584.921875 528.289062 C 586.972656 526.890625 589.105469 525.636719 591.324219 524.527344 C 593.546875 523.417969 595.832031 522.460938 598.179688 521.660156 C 600.527344 520.863281 602.921875 520.226562 605.359375 519.75 C 607.792969 519.273438 610.25 518.96875 612.726562 518.824219 C 615.207031 518.683594 617.683594 518.710938 620.15625 518.90625 L 620.15625 468.28125 C 620.15625 468.28125 582.1875 468.28125 569.53125 493.59375 C 569.300781 491.183594 568.855469 488.816406 568.1875 486.492188 C 567.519531 484.164062 566.648438 481.921875 565.566406 479.757812 C 564.484375 477.59375 563.210938 475.546875 561.75 473.617188 C 560.289062 471.6875 558.664062 469.910156 556.875 468.28125 Z M 556.875 468.28125 " fill-opacity="1" fill-rule="nonzero"/><path fill="#200926" d="M 354.375 569.53125 L 354.375 594.84375 L 367.03125 594.84375 C 370.6875 594.84375 374.328125 594.621094 377.953125 594.171875 C 381.582031 593.71875 385.167969 593.046875 388.710938 592.152344 C 392.253906 591.257812 395.730469 590.148438 399.136719 588.824219 C 402.542969 587.5 405.851562 585.96875 409.070312 584.234375 C 412.285156 582.5 415.382812 580.570312 418.359375 578.453125 C 421.339844 576.332031 424.175781 574.039062 426.867188 571.566406 C 429.5625 569.097656 432.089844 566.46875 434.460938 563.683594 C 436.828125 560.902344 439.015625 557.980469 441.019531 554.925781 C 437.429688 557.300781 433.683594 559.398438 429.789062 561.222656 C 425.890625 563.046875 421.878906 564.578125 417.757812 565.8125 C 413.636719 567.050781 409.445312 567.980469 405.1875 568.601562 C 400.929688 569.226562 396.648438 569.535156 392.34375 569.53125 Z M 354.375 569.53125 " fill-opacity="1" fill-rule="nonzero"/><path fill="#200926" d="M 430.3125 480.9375 C 430.3125 479.695312 430.25 478.453125 430.128906 477.214844 C 430.007812 475.976562 429.824219 474.75 429.582031 473.53125 C 429.339844 472.308594 429.039062 471.105469 428.675781 469.914062 C 428.316406 468.726562 427.898438 467.554688 427.421875 466.40625 C 426.945312 465.257812 426.414062 464.136719 425.828125 463.039062 C 425.242188 461.941406 424.605469 460.878906 423.914062 459.84375 C 423.222656 458.808594 422.484375 457.8125 421.695312 456.851562 C 420.90625 455.890625 420.070312 454.96875 419.191406 454.089844 C 418.3125 453.210938 417.390625 452.375 416.429688 451.585938 C 415.46875 450.796875 414.472656 450.058594 413.4375 449.367188 C 412.402344 448.675781 411.339844 448.039062 410.242188 447.453125 C 409.144531 446.867188 408.023438 446.335938 406.875 445.859375 C 405.726562 445.382812 404.554688 444.964844 403.367188 444.605469 C 402.175781 444.242188 400.96875 443.941406 399.75 443.699219 C 398.53125 443.457031 397.304688 443.273438 396.066406 443.152344 C 394.828125 443.03125 393.585938 442.96875 392.34375 442.96875 L 354.375 442.96875 L 354.375 468.28125 L 367.03125 468.28125 C 367.769531 468.269531 368.507812 468.28125 369.246094 468.316406 C 369.984375 468.351562 370.722656 468.40625 371.457031 468.484375 C 372.191406 468.558594 372.925781 468.660156 373.652344 468.78125 C 374.382812 468.902344 375.109375 469.042969 375.828125 469.207031 C 376.550781 469.371094 377.265625 469.554688 377.976562 469.761719 C 378.683594 469.964844 379.386719 470.191406 380.085938 470.441406 C 380.78125 470.6875 381.46875 470.957031 382.148438 471.242188 C 382.832031 471.53125 383.5 471.839844 384.164062 472.167969 C 384.828125 472.496094 385.476562 472.84375 386.121094 473.210938 C 386.761719 473.578125 387.390625 473.960938 388.011719 474.367188 C 388.628906 474.769531 389.238281 475.191406 389.832031 475.632812 C 390.425781 476.070312 391.003906 476.527344 391.574219 477 C 392.140625 477.476562 392.691406 477.964844 393.230469 478.472656 C 393.769531 478.980469 394.289062 479.503906 394.796875 480.039062 C 395.304688 480.578125 395.796875 481.128906 396.269531 481.695312 C 396.742188 482.265625 397.199219 482.84375 397.640625 483.4375 C 398.082031 484.03125 398.503906 484.636719 398.90625 485.257812 C 399.3125 485.875 399.695312 486.507812 400.0625 487.148438 C 400.429688 487.789062 400.777344 488.441406 401.105469 489.101562 C 401.433594 489.765625 401.742188 490.4375 402.03125 491.117188 C 402.320312 491.796875 402.585938 492.484375 402.835938 493.183594 C 403.082031 493.878906 403.308594 494.582031 403.515625 495.292969 C 403.722656 496 403.90625 496.714844 404.070312 497.4375 C 404.234375 498.160156 404.378906 498.882812 404.5 499.613281 C 404.621094 500.339844 404.71875 501.074219 404.796875 501.808594 C 404.875 502.542969 404.929688 503.28125 404.964844 504.019531 C 404.996094 504.757812 405.007812 505.496094 405 506.234375 C 404.988281 506.972656 404.957031 507.710938 404.90625 508.449219 C 404.851562 509.1875 404.777344 509.921875 404.679688 510.652344 C 404.582031 511.386719 404.464844 512.117188 404.324219 512.839844 C 404.183594 513.566406 404.023438 514.289062 403.839844 515.003906 C 403.65625 515.71875 403.453125 516.429688 403.226562 517.132812 C 405.167969 516.558594 407.050781 515.832031 408.871094 514.957031 C 410.695312 514.078125 412.4375 513.0625 414.097656 511.90625 C 415.757812 510.75 417.316406 509.46875 418.769531 508.0625 C 420.222656 506.65625 421.558594 505.144531 422.769531 503.523438 C 423.980469 501.90625 425.058594 500.199219 425.996094 498.40625 C 426.933594 496.613281 427.722656 494.757812 428.363281 492.839844 C 429.003906 490.921875 429.488281 488.964844 429.816406 486.96875 C 430.140625 484.96875 430.308594 482.960938 430.3125 480.9375 Z M 430.3125 480.9375 " fill-opacity="1" fill-rule="nonzero"/><path fill="#200926" d="M 303.75 417.65625 L 278.4375 417.65625 L 278.4375 696.09375 L 329.0625 696.09375 L 329.0625 670.78125 L 303.75 670.78125 Z M 303.75 417.65625 " fill-opacity="1" fill-rule="nonzero"/><path fill="#200926" d="M 569.53125 544.21875 L 569.53125 548.8125 C 577.671875 545.65625 586.109375 544.125 594.84375 544.21875 L 594.84375 523.5 C 592.226562 524.457031 589.710938 525.621094 587.292969 527 C 584.875 528.378906 582.585938 529.949219 580.433594 531.714844 C 578.277344 533.476562 576.285156 535.410156 574.457031 537.507812 C 572.625 539.605469 570.984375 541.84375 569.53125 544.21875 Z M 569.53125 544.21875 " fill-opacity="1" fill-rule="nonzero"/><path fill="#200926" d="M 518.90625 493.59375 L 493.59375 493.59375 L 493.59375 696.09375 L 544.21875 696.09375 L 544.21875 670.78125 L 518.90625 670.78125 Z M 518.90625 493.59375 " fill-opacity="1" fill-rule="nonzero"/><path fill="#af56c9" d="M 254.390625 166.265625 C 256.601562 164.039062 258.507812 161.582031 260.109375 158.886719 C 257.5 160.535156 254.722656 161.839844 251.785156 162.796875 Z M 254.390625 166.265625 " fill-opacity="1" fill-rule="nonzero"/><path fill="#af56c9" d="M 202.5 101.25 C 201.667969 101.25 200.847656 101.332031 200.03125 101.492188 C 199.214844 101.65625 198.425781 101.894531 197.65625 102.214844 C 196.890625 102.53125 196.160156 102.921875 195.46875 103.382812 C 194.777344 103.84375 194.136719 104.371094 193.550781 104.957031 C 192.964844 105.542969 192.4375 106.183594 191.976562 106.875 C 191.515625 107.566406 191.125 108.296875 190.808594 109.0625 C 190.488281 109.832031 190.25 110.621094 190.085938 111.4375 C 189.925781 112.253906 189.84375 113.074219 189.84375 113.90625 L 189.84375 227.8125 L 215.15625 227.8125 L 215.15625 215.15625 L 202.5 215.15625 Z M 202.5 101.25 " fill-opacity="1" fill-rule="nonzero"/><path fill="#af56c9" d="M 253.125 206.714844 L 227.8125 172.972656 L 227.8125 202.5 L 240.46875 219.371094 L 240.46875 227.8125 L 265.78125 227.8125 L 265.78125 215.15625 L 253.125 215.15625 Z M 253.125 206.714844 " fill-opacity="1" fill-rule="nonzero"/><path fill="#af56c9" d="M 240.46875 139.21875 C 241.300781 139.21875 242.121094 139.136719 242.9375 138.976562 C 243.753906 138.8125 244.542969 138.574219 245.3125 138.253906 C 246.078125 137.9375 246.808594 137.546875 247.5 137.085938 C 248.191406 136.625 248.832031 136.097656 249.417969 135.511719 C 250.003906 134.925781 250.53125 134.285156 250.992188 133.59375 C 251.453125 132.902344 251.84375 132.171875 252.160156 131.40625 C 252.480469 130.636719 252.71875 129.847656 252.882812 129.03125 C 253.042969 128.214844 253.125 127.394531 253.125 126.5625 C 253.125 125.730469 253.042969 124.910156 252.882812 124.09375 C 252.71875 123.277344 252.480469 122.488281 252.160156 121.71875 C 251.84375 120.953125 251.453125 120.222656 250.992188 119.53125 C 250.53125 118.839844 250.003906 118.199219 249.417969 117.613281 C 248.832031 117.027344 248.191406 116.5 247.5 116.039062 C 246.808594 115.578125 246.078125 115.1875 245.3125 114.871094 C 244.542969 114.550781 243.753906 114.3125 242.9375 114.148438 C 242.121094 113.988281 241.300781 113.90625 240.46875 113.90625 L 227.8125 113.90625 L 227.8125 126.5625 C 228.644531 126.5625 229.464844 126.644531 230.28125 126.804688 C 231.097656 126.96875 231.886719 127.207031 232.65625 127.527344 C 233.421875 127.84375 234.152344 128.234375 234.84375 128.695312 C 235.535156 129.15625 236.175781 129.683594 236.761719 130.269531 C 237.347656 130.855469 237.875 131.496094 238.335938 132.1875 C 238.796875 132.878906 239.1875 133.609375 239.503906 134.375 C 239.824219 135.144531 240.0625 135.933594 240.226562 136.75 C 240.386719 137.566406 240.46875 138.386719 240.46875 139.21875 Z M 240.46875 139.21875 " fill-opacity="1" fill-rule="nonzero"/><path fill="#af56c9" d="M 101.25 101.25 C 100.417969 101.25 99.597656 101.332031 98.78125 101.492188 C 97.964844 101.65625 97.175781 101.894531 96.40625 102.214844 C 95.640625 102.53125 94.910156 102.921875 94.21875 103.382812 C 93.527344 103.84375 92.886719 104.371094 92.300781 104.957031 C 91.714844 105.542969 91.1875 106.183594 90.726562 106.875 C 90.265625 107.566406 89.875 108.296875 89.558594 109.0625 C 89.238281 109.832031 89 110.621094 88.835938 111.4375 C 88.675781 112.253906 88.59375 113.074219 88.59375 113.90625 L 88.59375 227.8125 L 113.90625 227.8125 L 113.90625 215.15625 L 101.25 215.15625 Z M 101.25 101.25 " fill-opacity="1" fill-rule="nonzero"/><path fill="#af56c9" d="M 151.875 113.90625 L 126.5625 113.90625 L 126.5625 126.5625 L 139.21875 126.5625 C 140.050781 126.5625 140.871094 126.644531 141.6875 126.804688 C 142.503906 126.96875 143.292969 127.207031 144.0625 127.527344 C 144.828125 127.84375 145.558594 128.234375 146.25 128.695312 C 146.941406 129.15625 147.582031 129.683594 148.167969 130.269531 C 148.753906 130.855469 149.28125 131.496094 149.742188 132.1875 C 150.203125 132.878906 150.59375 133.609375 150.910156 134.375 C 151.230469 135.144531 151.46875 135.933594 151.632812 136.75 C 151.792969 137.566406 151.875 138.386719 151.875 139.21875 C 152.707031 139.21875 153.527344 139.136719 154.34375 138.976562 C 155.160156 138.8125 155.949219 138.574219 156.71875 138.253906 C 157.484375 137.9375 158.214844 137.546875 158.90625 137.085938 C 159.597656 136.625 160.238281 136.097656 160.824219 135.511719 C 161.410156 134.925781 161.9375 134.285156 162.398438 133.59375 C 162.859375 132.902344 163.25 132.171875 163.566406 131.40625 C 163.886719 130.636719 164.125 129.847656 164.289062 129.03125 C 164.449219 128.214844 164.53125 127.394531 164.53125 126.5625 C 164.53125 125.730469 164.449219 124.910156 164.289062 124.09375 C 164.125 123.277344 163.886719 122.488281 163.566406 121.71875 C 163.25 120.953125 162.859375 120.222656 162.398438 119.53125 C 161.9375 118.839844 161.410156 118.199219 160.824219 117.613281 C 160.238281 117.027344 159.597656 116.5 158.90625 116.039062 C 158.214844 115.578125 157.484375 115.1875 156.71875 114.871094 C 155.949219 114.550781 155.160156 114.3125 154.34375 114.148438 C 153.527344 113.988281 152.707031 113.90625 151.875 113.90625 Z M 151.875 113.90625 " fill-opacity="1" fill-rule="nonzero"/><path fill="#af56c9" d="M 126.5625 164.53125 L 126.5625 177.1875 L 139.21875 177.1875 C 140.839844 177.183594 142.453125 177.074219 144.058594 176.863281 C 145.664062 176.652344 147.25 176.339844 148.816406 175.925781 C 150.378906 175.511719 151.914062 174.996094 153.414062 174.386719 C 154.914062 173.773438 156.367188 173.070312 157.777344 172.269531 C 159.1875 171.472656 160.539062 170.589844 161.835938 169.617188 C 163.132812 168.644531 164.359375 167.59375 165.523438 166.464844 C 166.683594 165.335938 167.769531 164.136719 168.777344 162.867188 C 169.78125 161.601562 170.707031 160.273438 171.542969 158.886719 C 168.589844 160.714844 165.441406 162.109375 162.097656 163.070312 C 158.757812 164.027344 155.351562 164.515625 151.875 164.53125 Z M 126.5625 164.53125 " fill-opacity="1" fill-rule="nonzero"/><path fill="#af56c9" d="M 405 177.1875 L 392.34375 177.1875 L 392.34375 189.84375 C 392.339844 190.871094 392.378906 191.894531 392.460938 192.917969 C 392.539062 193.941406 392.664062 194.960938 392.824219 195.976562 C 392.988281 196.988281 393.191406 197.996094 393.4375 198.992188 C 393.683594 199.988281 393.96875 200.976562 394.292969 201.949219 C 394.617188 202.921875 394.984375 203.882812 395.386719 204.824219 C 395.789062 205.769531 396.230469 206.695312 396.710938 207.605469 C 397.1875 208.511719 397.703125 209.402344 398.253906 210.265625 C 398.804688 211.132812 399.390625 211.976562 400.007812 212.796875 C 400.628906 213.613281 401.28125 214.40625 401.964844 215.171875 C 402.648438 215.9375 403.363281 216.675781 404.105469 217.382812 C 404.847656 218.089844 405.621094 218.769531 406.417969 219.414062 C 407.21875 220.058594 408.042969 220.671875 408.890625 221.25 C 409.738281 221.828125 410.609375 222.367188 411.503906 222.875 C 412.394531 223.382812 413.308594 223.855469 414.238281 224.285156 C 415.167969 224.71875 416.117188 225.113281 417.078125 225.472656 C 418.042969 225.828125 419.019531 226.144531 420.007812 226.421875 C 420.996094 226.695312 421.996094 226.933594 423.003906 227.128906 C 424.011719 227.324219 425.023438 227.476562 426.046875 227.589844 C 427.066406 227.703125 428.089844 227.773438 429.117188 227.804688 C 430.144531 227.835938 431.167969 227.824219 432.195312 227.769531 C 433.21875 227.714844 434.242188 227.621094 435.257812 227.484375 C 436.277344 227.34375 437.285156 227.167969 438.289062 226.949219 C 439.292969 226.730469 440.285156 226.46875 441.269531 226.171875 C 442.25 225.871094 443.21875 225.53125 444.171875 225.152344 C 445.128906 224.773438 446.066406 224.355469 446.984375 223.902344 C 447.90625 223.449219 448.804688 222.957031 449.6875 222.429688 C 450.566406 221.898438 451.425781 221.335938 452.261719 220.738281 C 453.09375 220.140625 453.902344 219.511719 454.6875 218.847656 C 455.472656 218.183594 456.226562 217.488281 456.953125 216.761719 C 457.679688 216.039062 458.375 215.285156 459.042969 214.503906 C 459.707031 213.722656 460.339844 212.914062 460.941406 212.082031 C 461.539062 211.246094 462.105469 210.390625 462.636719 209.511719 C 461.210938 210.394531 459.730469 211.179688 458.195312 211.867188 C 456.664062 212.550781 455.09375 213.132812 453.484375 213.609375 C 451.875 214.085938 450.242188 214.453125 448.582031 214.710938 C 446.921875 214.96875 445.253906 215.117188 443.578125 215.152344 C 441.898438 215.1875 440.226562 215.113281 438.558594 214.925781 C 436.890625 214.738281 435.242188 214.441406 433.613281 214.035156 C 431.984375 213.628906 430.390625 213.117188 428.828125 212.496094 C 427.269531 211.875 425.757812 211.15625 424.292969 210.335938 C 422.828125 209.515625 421.425781 208.597656 420.082031 207.589844 C 418.742188 206.582031 417.472656 205.488281 416.273438 204.3125 C 415.078125 203.136719 413.964844 201.882812 412.9375 200.558594 C 411.90625 199.230469 410.96875 197.84375 410.125 196.394531 C 409.28125 194.941406 408.535156 193.441406 407.890625 191.890625 C 407.246094 190.339844 406.710938 188.753906 406.277344 187.132812 C 405.84375 185.511719 405.519531 183.867188 405.308594 182.203125 C 405.09375 180.539062 404.992188 178.867188 405 177.1875 Z M 405 177.1875 " fill-opacity="1" fill-rule="nonzero"/><path fill="#af56c9" d="M 455.625 177.1875 L 455.625 101.25 L 442.96875 101.25 L 442.96875 189.84375 C 443.800781 189.84375 444.621094 189.761719 445.4375 189.601562 C 446.253906 189.4375 447.042969 189.199219 447.8125 188.878906 C 448.578125 188.5625 449.308594 188.171875 450 187.710938 C 450.691406 187.25 451.332031 186.722656 451.917969 186.136719 C 452.503906 185.550781 453.03125 184.910156 453.492188 184.21875 C 453.953125 183.527344 454.34375 182.796875 454.660156 182.03125 C 454.980469 181.261719 455.21875 180.472656 455.382812 179.65625 C 455.542969 178.839844 455.625 178.019531 455.625 177.1875 Z M 455.625 177.1875 " fill-opacity="1" fill-rule="nonzero"/><path fill="#af56c9" d="M 291.09375 164.53125 L 291.09375 139.21875 C 291.097656 134.058594 291.875 129.015625 293.429688 124.09375 C 294.984375 119.175781 297.242188 114.601562 300.207031 110.375 C 298.535156 111.53125 296.9375 112.785156 295.417969 114.136719 C 293.898438 115.484375 292.464844 116.921875 291.117188 118.445312 C 289.773438 119.96875 288.523438 121.566406 287.367188 123.238281 C 286.214844 124.914062 285.164062 126.648438 284.222656 128.449219 C 283.277344 130.25 282.445312 132.101562 281.722656 134 C 281 135.902344 280.398438 137.839844 279.910156 139.8125 C 279.421875 141.785156 279.054688 143.78125 278.808594 145.800781 C 278.5625 147.816406 278.441406 149.84375 278.4375 151.875 L 278.4375 177.1875 C 278.441406 178.523438 278.496094 179.855469 278.605469 181.183594 C 278.714844 182.515625 278.875 183.839844 279.089844 185.15625 C 279.304688 186.472656 279.570312 187.78125 279.886719 189.078125 C 280.203125 190.375 280.570312 191.65625 280.988281 192.921875 C 281.40625 194.191406 281.875 195.441406 282.390625 196.667969 C 282.910156 197.898438 283.472656 199.109375 284.085938 200.292969 C 284.699219 201.480469 285.355469 202.640625 286.0625 203.773438 C 286.765625 204.90625 287.515625 206.011719 288.304688 207.085938 C 289.097656 208.160156 289.929688 209.203125 290.804688 210.210938 C 291.679688 211.21875 292.589844 212.191406 293.542969 213.128906 C 294.492188 214.0625 295.480469 214.960938 296.5 215.820312 C 297.523438 216.679688 298.578125 217.496094 299.664062 218.269531 C 300.75 219.046875 301.867188 219.777344 303.011719 220.464844 C 304.15625 221.148438 305.324219 221.789062 306.519531 222.382812 C 307.714844 222.980469 308.933594 223.523438 310.171875 224.023438 C 311.410156 224.519531 312.664062 224.96875 313.9375 225.367188 C 315.210938 225.765625 316.5 226.113281 317.800781 226.410156 C 319.101562 226.707031 320.414062 226.953125 321.734375 227.148438 C 323.054688 227.339844 324.378906 227.480469 325.710938 227.570312 C 327.042969 227.65625 328.375 227.695312 329.710938 227.675781 C 331.046875 227.660156 332.378906 227.589844 333.707031 227.46875 C 335.035156 227.34375 336.359375 227.167969 337.671875 226.941406 C 338.988281 226.714844 340.292969 226.4375 341.585938 226.105469 C 342.878906 225.777344 344.15625 225.394531 345.417969 224.964844 C 346.683594 224.535156 347.925781 224.054688 349.152344 223.523438 C 350.378906 222.992188 351.578125 222.417969 352.757812 221.792969 C 353.9375 221.167969 355.089844 220.496094 356.21875 219.78125 C 357.34375 219.066406 358.441406 218.304688 359.507812 217.503906 C 360.574219 216.699219 361.605469 215.855469 362.605469 214.972656 C 363.605469 214.089844 364.570312 213.167969 365.496094 212.207031 C 366.421875 211.246094 367.308594 210.25 368.15625 209.21875 C 369.003906 208.1875 369.8125 207.125 370.574219 206.03125 C 368.6875 207.351562 366.722656 208.535156 364.675781 209.585938 C 362.625 210.636719 360.515625 211.542969 358.34375 212.304688 C 356.171875 213.066406 353.960938 213.675781 351.707031 214.136719 C 349.449219 214.59375 347.175781 214.898438 344.878906 215.046875 C 342.582031 215.195312 340.285156 215.1875 337.988281 215.023438 C 335.695312 214.855469 333.421875 214.535156 331.167969 214.0625 C 328.917969 213.585938 326.707031 212.957031 324.542969 212.179688 C 322.375 211.402344 320.273438 210.480469 318.234375 209.414062 C 316.191406 208.351562 314.234375 207.152344 312.359375 205.820312 C 310.480469 204.484375 308.707031 203.03125 307.027344 201.457031 C 305.351562 199.878906 303.789062 198.199219 302.339844 196.410156 C 300.890625 194.621094 299.574219 192.742188 298.382812 190.769531 C 297.191406 188.800781 296.140625 186.761719 295.226562 184.648438 C 294.316406 182.535156 293.554688 180.367188 292.9375 178.152344 C 292.320312 175.933594 291.859375 173.683594 291.550781 171.40625 C 291.242188 169.125 291.089844 166.832031 291.09375 164.53125 Z M 291.09375 164.53125 " fill-opacity="1" fill-rule="nonzero"/><path fill="#af56c9" d="M 341.71875 113.90625 C 340.507812 113.910156 339.304688 113.996094 338.105469 114.171875 C 336.90625 114.347656 335.726562 114.609375 334.566406 114.953125 C 333.40625 115.296875 332.273438 115.722656 331.175781 116.230469 C 330.074219 116.738281 329.015625 117.320312 328 117.980469 C 326.984375 118.636719 326.019531 119.367188 325.109375 120.164062 C 324.199219 120.960938 323.347656 121.820312 322.558594 122.738281 C 321.769531 123.65625 321.050781 124.628906 320.402344 125.648438 C 319.753906 126.671875 319.179688 127.734375 318.683594 128.839844 C 319.164062 128.621094 319.648438 128.417969 320.140625 128.230469 C 320.632812 128.042969 321.128906 127.867188 321.628906 127.710938 C 322.132812 127.554688 322.640625 127.414062 323.152344 127.285156 C 323.660156 127.160156 324.175781 127.050781 324.695312 126.957031 C 325.210938 126.867188 325.734375 126.789062 326.253906 126.726562 C 326.777344 126.667969 327.300781 126.621094 327.828125 126.59375 C 328.355469 126.566406 328.878906 126.554688 329.40625 126.5625 C 329.933594 126.566406 330.457031 126.585938 330.984375 126.625 C 331.507812 126.664062 332.03125 126.71875 332.554688 126.789062 C 333.074219 126.859375 333.59375 126.945312 334.109375 127.050781 C 334.625 127.152344 335.136719 127.273438 335.648438 127.40625 C 336.15625 127.542969 336.660156 127.695312 337.160156 127.859375 C 337.65625 128.027344 338.152344 128.210938 338.640625 128.40625 C 339.125 128.605469 339.609375 128.820312 340.082031 129.046875 C 340.558594 129.273438 341.023438 129.515625 341.484375 129.773438 C 341.941406 130.03125 342.394531 130.300781 342.835938 130.589844 C 343.277344 130.875 343.710938 131.171875 344.132812 131.484375 C 344.558594 131.796875 344.96875 132.121094 345.375 132.460938 C 345.777344 132.800781 346.167969 133.152344 346.550781 133.511719 C 346.929688 133.875 347.300781 134.25 347.660156 134.636719 C 348.015625 135.023438 348.363281 135.421875 348.695312 135.828125 C 349.027344 136.234375 349.347656 136.652344 349.652344 137.082031 C 349.960938 137.507812 350.253906 137.945312 350.53125 138.390625 C 350.8125 138.839844 351.078125 139.292969 351.328125 139.753906 C 351.578125 140.21875 351.816406 140.6875 352.035156 141.164062 C 352.257812 141.644531 352.464844 142.128906 352.65625 142.617188 C 352.847656 143.109375 353.023438 143.605469 353.183594 144.105469 C 353.339844 144.605469 353.484375 145.113281 353.613281 145.625 C 353.742188 146.132812 353.855469 146.648438 353.949219 147.164062 C 354.046875 147.683594 354.128906 148.203125 354.191406 148.726562 C 354.253906 149.246094 354.300781 149.773438 354.332031 150.296875 C 354.363281 150.824219 354.378906 151.347656 354.375 151.875 L 354.375 177.1875 C 354.363281 180.8125 353.601562 184.269531 352.097656 187.566406 C 353.203125 187.070312 354.265625 186.496094 355.289062 185.847656 C 356.308594 185.199219 357.28125 184.480469 358.199219 183.691406 C 359.117188 182.902344 359.976562 182.050781 360.773438 181.140625 C 361.570312 180.230469 362.300781 179.265625 362.957031 178.25 C 363.617188 177.234375 364.199219 176.175781 364.707031 175.074219 C 365.214844 173.976562 365.640625 172.84375 365.984375 171.683594 C 366.328125 170.523438 366.589844 169.34375 366.765625 168.144531 C 366.941406 166.945312 367.027344 165.742188 367.03125 164.53125 L 367.03125 139.21875 C 367.03125 138.390625 366.992188 137.5625 366.910156 136.738281 C 366.828125 135.914062 366.707031 135.09375 366.542969 134.28125 C 366.382812 133.46875 366.183594 132.664062 365.941406 131.871094 C 365.699219 131.078125 365.421875 130.296875 365.105469 129.53125 C 364.789062 128.765625 364.433594 128.019531 364.042969 127.285156 C 363.652344 126.554688 363.226562 125.84375 362.765625 125.15625 C 362.304688 124.464844 361.8125 123.800781 361.285156 123.160156 C 360.757812 122.519531 360.203125 121.90625 359.617188 121.320312 C 359.03125 120.734375 358.417969 120.179688 357.777344 119.652344 C 357.136719 119.125 356.472656 118.632812 355.78125 118.171875 C 355.09375 117.710938 354.382812 117.285156 353.652344 116.894531 C 352.917969 116.503906 352.171875 116.148438 351.40625 115.832031 C 350.640625 115.515625 349.859375 115.238281 349.066406 114.996094 C 348.273438 114.753906 347.46875 114.554688 346.65625 114.394531 C 345.84375 114.230469 345.023438 114.109375 344.199219 114.027344 C 343.375 113.945312 342.546875 113.90625 341.71875 113.90625 Z M 341.71875 113.90625 " fill-opacity="1" fill-rule="nonzero"/><g clip-path="url(#87244a7561)"><path fill="#000000" d="M 755.667969 155.582031 L 603.792969 3.707031 C 602.605469 2.519531 601.238281 1.605469 599.6875 0.964844 C 598.136719 0.320312 596.523438 0 594.84375 0 L 164.53125 0 C 163.699219 0 162.878906 0.0820312 162.0625 0.242188 C 161.246094 0.40625 160.457031 0.644531 159.6875 0.964844 C 158.921875 1.28125 158.191406 1.671875 157.5 2.132812 C 156.808594 2.59375 156.167969 3.121094 155.582031 3.707031 C 154.996094 4.292969 154.46875 4.933594 154.007812 5.625 C 153.546875 6.316406 153.15625 7.046875 152.839844 7.8125 C 152.519531 8.582031 152.28125 9.371094 152.117188 10.1875 C 151.957031 11.003906 151.875 11.824219 151.875 12.65625 L 151.875 37.96875 L 63.28125 37.96875 C 62.449219 37.96875 61.628906 38.050781 60.8125 38.210938 C 59.996094 38.375 59.207031 38.613281 58.4375 38.933594 C 57.671875 39.25 56.941406 39.640625 56.25 40.101562 C 55.558594 40.5625 54.917969 41.089844 54.332031 41.675781 C 53.746094 42.261719 53.21875 42.902344 52.757812 43.59375 C 52.296875 44.285156 51.90625 45.015625 51.589844 45.78125 C 51.269531 46.550781 51.03125 47.339844 50.867188 48.15625 C 50.707031 48.972656 50.625 49.792969 50.625 50.625 L 50.625 253.125 C 50.625 253.957031 50.707031 254.777344 50.867188 255.59375 C 51.03125 256.410156 51.269531 257.199219 51.589844 257.96875 C 51.90625 258.734375 52.296875 259.464844 52.757812 260.15625 C 53.21875 260.847656 53.746094 261.488281 54.332031 262.074219 C 54.917969 262.660156 55.558594 263.1875 56.25 263.648438 C 56.941406 264.109375 57.671875 264.5 58.4375 264.816406 C 59.207031 265.136719 59.996094 265.375 60.8125 265.539062 C 61.628906 265.699219 62.449219 265.78125 63.28125 265.78125 L 518.90625 265.78125 C 519.738281 265.78125 520.558594 265.699219 521.375 265.539062 C 522.191406 265.375 522.980469 265.136719 523.75 264.816406 C 524.515625 264.5 525.246094 264.109375 525.9375 263.648438 C 526.628906 263.1875 527.269531 262.660156 527.855469 262.074219 C 528.441406 261.488281 528.96875 260.847656 529.429688 260.15625 C 529.890625 259.464844 530.28125 258.734375 530.597656 257.96875 C 530.917969 257.199219 531.15625 256.410156 531.320312 255.59375 C 531.480469 254.777344 531.5625 253.957031 531.5625 253.125 L 531.5625 50.625 C 531.5625 49.792969 531.480469 48.972656 531.320312 48.15625 C 531.15625 47.339844 530.917969 46.550781 530.597656 45.78125 C 530.28125 45.015625 529.890625 44.285156 529.429688 43.59375 C 528.96875 42.902344 528.441406 42.261719 527.855469 41.675781 C 527.269531 41.089844 526.628906 40.5625 525.9375 40.101562 C 525.246094 39.640625 524.515625 39.25 523.75 38.933594 C 522.980469 38.613281 522.191406 38.375 521.375 38.210938 C 520.558594 38.050781 519.738281 37.96875 518.90625 37.96875 L 177.1875 37.96875 L 177.1875 25.3125 L 582.1875 25.3125 L 582.1875 164.53125 C 582.1875 165.363281 582.269531 166.183594 582.429688 167 C 582.59375 167.816406 582.832031 168.605469 583.152344 169.375 C 583.46875 170.140625 583.859375 170.871094 584.320312 171.5625 C 584.78125 172.253906 585.308594 172.894531 585.894531 173.480469 C 586.480469 174.066406 587.121094 174.59375 587.8125 175.054688 C 588.503906 175.515625 589.234375 175.90625 590 176.222656 C 590.769531 176.542969 591.558594 176.78125 592.375 176.945312 C 593.191406 177.105469 594.011719 177.1875 594.84375 177.1875 L 734.0625 177.1875 L 734.0625 202.5 L 759.375 202.5 L 759.375 164.53125 C 759.375 162.851562 759.054688 161.238281 758.410156 159.6875 C 757.769531 158.136719 756.855469 156.769531 755.667969 155.582031 Z M 506.25 240.46875 L 75.9375 240.46875 L 75.9375 63.28125 L 506.25 63.28125 Z M 607.5 43.207031 L 716.167969 151.875 L 607.5 151.875 Z M 607.5 43.207031 " fill-opacity="1" fill-rule="nonzero"/></g><path fill="#000000" d="M 151.875 291.09375 L 177.1875 291.09375 L 177.1875 316.40625 L 151.875 316.40625 Z M 151.875 291.09375 " fill-opacity="1" fill-rule="nonzero"/><path fill="#000000" d="M 151.875 341.71875 L 177.1875 341.71875 L 177.1875 708.75 L 151.875 708.75 Z M 151.875 341.71875 " fill-opacity="1" fill-rule="nonzero"/><g clip-path="url(#47f48e18ea)"><path fill="#000000" d="M 734.0625 784.6875 L 177.1875 784.6875 L 177.1875 734.0625 L 151.875 734.0625 L 151.875 797.34375 C 151.875 798.175781 151.957031 798.996094 152.117188 799.8125 C 152.28125 800.628906 152.519531 801.417969 152.839844 802.1875 C 153.15625 802.953125 153.546875 803.683594 154.007812 804.375 C 154.46875 805.066406 154.996094 805.707031 155.582031 806.292969 C 156.167969 806.878906 156.808594 807.40625 157.5 807.867188 C 158.191406 808.328125 158.921875 808.71875 159.6875 809.035156 C 160.457031 809.355469 161.246094 809.59375 162.0625 809.757812 C 162.878906 809.917969 163.699219 810 164.53125 810 L 746.71875 810 C 747.550781 810 748.371094 809.917969 749.1875 809.757812 C 750.003906 809.59375 750.792969 809.355469 751.5625 809.035156 C 752.328125 808.71875 753.058594 808.328125 753.75 807.867188 C 754.441406 807.40625 755.082031 806.878906 755.667969 806.292969 C 756.253906 805.707031 756.78125 805.066406 757.242188 804.375 C 757.703125 803.683594 758.09375 802.953125 758.410156 802.1875 C 758.730469 801.417969 758.96875 800.628906 759.132812 799.8125 C 759.292969 798.996094 759.375 798.175781 759.375 797.34375 L 759.375 278.4375 L 734.0625 278.4375 Z M 734.0625 784.6875 " fill-opacity="1" fill-rule="nonzero"/></g><g clip-path="url(#6106eb2ec0)"><path fill="#000000" d="M 734.0625 227.8125 L 759.375 227.8125 L 759.375 253.125 L 734.0625 253.125 Z M 734.0625 227.8125 " fill-opacity="1" fill-rule="nonzero"/></g><path fill="#000000" d="M 354.375 683.4375 C 355.207031 683.4375 356.027344 683.355469 356.84375 683.195312 C 357.660156 683.03125 358.449219 682.792969 359.21875 682.472656 C 359.984375 682.15625 360.714844 681.765625 361.40625 681.304688 C 362.097656 680.84375 362.738281 680.316406 363.324219 679.730469 C 363.910156 679.144531 364.4375 678.503906 364.898438 677.8125 C 365.359375 677.121094 365.75 676.390625 366.066406 675.625 C 366.386719 674.855469 366.625 674.066406 366.789062 673.25 C 366.949219 672.433594 367.03125 671.613281 367.03125 670.78125 L 367.03125 582.1875 L 392.34375 582.1875 C 394 582.1875 395.65625 582.148438 397.3125 582.066406 C 398.96875 581.984375 400.617188 581.863281 402.269531 581.699219 C 403.917969 581.539062 405.5625 581.335938 407.199219 581.089844 C 408.839844 580.847656 410.472656 580.566406 412.097656 580.242188 C 413.722656 579.917969 415.339844 579.554688 416.945312 579.152344 C 418.554688 578.75 420.148438 578.308594 421.734375 577.828125 C 423.320312 577.347656 424.894531 576.828125 426.453125 576.269531 C 428.015625 575.710938 429.558594 575.113281 431.089844 574.480469 C 432.621094 573.847656 434.136719 573.175781 435.632812 572.464844 C 437.132812 571.757812 438.609375 571.011719 440.074219 570.230469 C 441.535156 569.449219 442.976562 568.632812 444.398438 567.78125 C 445.816406 566.929688 447.21875 566.042969 448.59375 565.125 C 449.972656 564.203125 451.328125 563.25 452.660156 562.261719 C 453.988281 561.273438 455.296875 560.257812 456.574219 559.203125 C 457.855469 558.152344 459.109375 557.070312 460.339844 555.957031 C 461.566406 554.847656 462.765625 553.703125 463.9375 552.53125 C 465.109375 551.359375 466.253906 550.160156 467.363281 548.933594 C 468.476562 547.703125 469.558594 546.449219 470.609375 545.167969 C 471.664062 543.890625 472.679688 542.582031 473.667969 541.253906 C 474.65625 539.921875 475.609375 538.566406 476.53125 537.1875 C 477.449219 535.8125 478.335938 534.410156 479.1875 532.992188 C 480.039062 531.570312 480.855469 530.128906 481.636719 528.667969 C 482.417969 527.203125 483.164062 525.726562 483.871094 524.226562 C 484.582031 522.730469 485.253906 521.214844 485.886719 519.683594 C 486.519531 518.152344 487.117188 516.609375 487.675781 515.046875 C 488.234375 513.488281 488.753906 511.914062 489.234375 510.328125 C 489.714844 508.742188 490.15625 507.148438 490.558594 505.539062 C 490.960938 503.933594 491.324219 502.316406 491.648438 500.691406 C 491.972656 499.066406 492.253906 497.433594 492.496094 495.792969 C 492.742188 494.15625 492.945312 492.511719 493.105469 490.863281 C 493.269531 489.210938 493.390625 487.5625 493.472656 485.90625 C 493.554688 484.25 493.59375 482.59375 493.59375 480.9375 C 493.59375 479.28125 493.554688 477.625 493.472656 475.96875 C 493.390625 474.3125 493.269531 472.664062 493.105469 471.011719 C 492.945312 469.363281 492.742188 467.71875 492.496094 466.082031 C 492.253906 464.441406 491.972656 462.808594 491.648438 461.183594 C 491.324219 459.558594 490.960938 457.941406 490.558594 456.335938 C 490.15625 454.726562 489.714844 453.132812 489.234375 451.546875 C 488.753906 449.960938 488.234375 448.386719 487.675781 446.828125 C 487.117188 445.265625 486.519531 443.722656 485.886719 442.191406 C 485.253906 440.660156 484.582031 439.144531 483.871094 437.648438 C 483.164062 436.148438 482.417969 434.671875 481.636719 433.207031 C 480.855469 431.746094 480.039062 430.304688 479.1875 428.882812 C 478.335938 427.464844 477.449219 426.0625 476.53125 424.6875 C 475.609375 423.308594 474.65625 421.953125 473.667969 420.621094 C 472.679688 419.292969 471.664062 417.984375 470.609375 416.707031 C 469.558594 415.425781 468.476562 414.167969 467.363281 412.941406 C 466.253906 411.714844 465.109375 410.515625 463.9375 409.34375 C 462.765625 408.171875 461.566406 407.027344 460.339844 405.917969 C 459.109375 404.804688 457.855469 403.722656 456.574219 402.671875 C 455.296875 401.617188 453.988281 400.601562 452.660156 399.613281 C 451.328125 398.625 449.972656 397.671875 448.59375 396.75 C 447.21875 395.832031 445.816406 394.945312 444.398438 394.09375 C 442.976562 393.242188 441.535156 392.425781 440.074219 391.644531 C 438.609375 390.863281 437.132812 390.117188 435.632812 389.410156 C 434.136719 388.699219 432.621094 388.027344 431.089844 387.394531 C 429.558594 386.761719 428.015625 386.164062 426.453125 385.605469 C 424.894531 385.046875 423.320312 384.527344 421.734375 384.046875 C 420.148438 383.566406 418.554688 383.125 416.945312 382.722656 C 415.339844 382.320312 413.722656 381.957031 412.097656 381.632812 C 410.472656 381.308594 408.839844 381.027344 407.199219 380.785156 C 405.5625 380.539062 403.917969 380.335938 402.269531 380.175781 C 400.617188 380.011719 398.96875 379.890625 397.3125 379.808594 C 395.65625 379.726562 394 379.6875 392.34375 379.6875 L 303.75 379.6875 C 302.917969 379.6875 302.097656 379.769531 301.28125 379.929688 C 300.464844 380.09375 299.675781 380.332031 298.90625 380.652344 C 298.140625 380.96875 297.410156 381.359375 296.71875 381.820312 C 296.027344 382.28125 295.386719 382.808594 294.800781 383.394531 C 294.214844 383.980469 293.6875 384.621094 293.226562 385.3125 C 292.765625 386.003906 292.375 386.734375 292.058594 387.5 C 291.738281 388.269531 291.5 389.058594 291.335938 389.875 C 291.175781 390.691406 291.09375 391.511719 291.09375 392.34375 L 291.09375 670.78125 C 291.09375 671.613281 291.175781 672.433594 291.335938 673.25 C 291.5 674.066406 291.738281 674.855469 292.058594 675.625 C 292.375 676.390625 292.765625 677.121094 293.226562 677.8125 C 293.6875 678.503906 294.214844 679.144531 294.800781 679.730469 C 295.386719 680.316406 296.027344 680.84375 296.71875 681.304688 C 297.410156 681.765625 298.140625 682.15625 298.90625 682.472656 C 299.675781 682.792969 300.464844 683.03125 301.28125 683.195312 C 302.097656 683.355469 302.917969 683.4375 303.75 683.4375 Z M 316.40625 405 L 392.34375 405 C 393.585938 405 394.828125 405.03125 396.070312 405.089844 C 397.3125 405.152344 398.550781 405.242188 399.785156 405.367188 C 401.023438 405.488281 402.257812 405.640625 403.484375 405.820312 C 404.714844 406.003906 405.941406 406.214844 407.160156 406.460938 C 408.378906 406.703125 409.589844 406.972656 410.796875 407.277344 C 412 407.578125 413.199219 407.910156 414.386719 408.269531 C 415.578125 408.628906 416.757812 409.019531 417.925781 409.4375 C 419.097656 409.859375 420.253906 410.304688 421.402344 410.78125 C 422.550781 411.257812 423.6875 411.757812 424.8125 412.289062 C 425.933594 412.820312 427.042969 413.378906 428.140625 413.964844 C 429.238281 414.550781 430.316406 415.164062 431.382812 415.804688 C 432.449219 416.441406 433.5 417.105469 434.53125 417.796875 C 435.566406 418.488281 436.582031 419.203125 437.578125 419.945312 C 438.578125 420.683594 439.558594 421.449219 440.519531 422.238281 C 441.480469 423.027344 442.417969 423.835938 443.339844 424.671875 C 444.261719 425.507812 445.160156 426.363281 446.039062 427.242188 C 446.917969 428.121094 447.773438 429.019531 448.609375 429.941406 C 449.445312 430.863281 450.253906 431.800781 451.042969 432.761719 C 451.832031 433.722656 452.597656 434.703125 453.335938 435.703125 C 454.078125 436.699219 454.792969 437.714844 455.484375 438.75 C 456.175781 439.78125 456.839844 440.832031 457.476562 441.898438 C 458.117188 442.964844 458.730469 444.042969 459.316406 445.140625 C 459.902344 446.238281 460.460938 447.347656 460.992188 448.46875 C 461.523438 449.59375 462.023438 450.730469 462.5 451.878906 C 462.976562 453.027344 463.421875 454.183594 463.84375 455.355469 C 464.261719 456.523438 464.652344 457.703125 465.011719 458.894531 C 465.371094 460.082031 465.703125 461.28125 466.003906 462.484375 C 466.308594 463.691406 466.578125 464.902344 466.820312 466.121094 C 467.066406 467.339844 467.277344 468.566406 467.460938 469.796875 C 467.640625 471.023438 467.792969 472.257812 467.914062 473.496094 C 468.039062 474.730469 468.128906 475.96875 468.191406 477.210938 C 468.25 478.453125 468.28125 479.695312 468.28125 480.9375 C 468.28125 482.179688 468.25 483.421875 468.191406 484.664062 C 468.128906 485.90625 468.039062 487.144531 467.914062 488.378906 C 467.792969 489.617188 467.640625 490.851562 467.460938 492.078125 C 467.277344 493.308594 467.066406 494.535156 466.820312 495.753906 C 466.578125 496.972656 466.308594 498.183594 466.003906 499.390625 C 465.703125 500.59375 465.371094 501.792969 465.011719 502.980469 C 464.652344 504.171875 464.261719 505.351562 463.84375 506.519531 C 463.421875 507.691406 462.976562 508.847656 462.5 509.996094 C 462.023438 511.144531 461.523438 512.28125 460.992188 513.40625 C 460.460938 514.527344 459.902344 515.636719 459.316406 516.734375 C 458.730469 517.832031 458.117188 518.910156 457.476562 519.976562 C 456.839844 521.042969 456.171875 522.09375 455.484375 523.125 C 454.792969 524.160156 454.078125 525.175781 453.335938 526.171875 C 452.597656 527.171875 451.832031 528.152344 451.042969 529.113281 C 450.253906 530.074219 449.445312 531.011719 448.609375 531.933594 C 447.773438 532.855469 446.917969 533.753906 446.039062 534.632812 C 445.160156 535.511719 444.261719 536.367188 443.339844 537.203125 C 442.417969 538.039062 441.480469 538.847656 440.519531 539.636719 C 439.558594 540.425781 438.578125 541.191406 437.578125 541.929688 C 436.582031 542.671875 435.566406 543.386719 434.53125 544.078125 C 433.5 544.769531 432.449219 545.433594 431.382812 546.070312 C 430.316406 546.710938 429.238281 547.324219 428.140625 547.910156 C 427.042969 548.496094 425.933594 549.054688 424.8125 549.585938 C 423.6875 550.117188 422.550781 550.617188 421.402344 551.09375 C 420.253906 551.570312 419.097656 552.015625 417.925781 552.4375 C 416.757812 552.855469 415.578125 553.246094 414.386719 553.605469 C 413.199219 553.964844 412 554.296875 410.796875 554.597656 C 409.589844 554.902344 408.378906 555.171875 407.160156 555.414062 C 405.941406 555.660156 404.714844 555.871094 403.484375 556.054688 C 402.257812 556.234375 401.023438 556.386719 399.785156 556.507812 C 398.550781 556.632812 397.3125 556.722656 396.070312 556.785156 C 394.828125 556.84375 393.585938 556.875 392.34375 556.875 L 354.375 556.875 C 353.542969 556.875 352.722656 556.957031 351.90625 557.117188 C 351.089844 557.28125 350.300781 557.519531 349.53125 557.839844 C 348.765625 558.15625 348.035156 558.546875 347.34375 559.007812 C 346.652344 559.46875 346.011719 559.996094 345.425781 560.582031 C 344.839844 561.167969 344.3125 561.808594 343.851562 562.5 C 343.390625 563.191406 343 563.921875 342.683594 564.6875 C 342.363281 565.457031 342.125 566.246094 341.960938 567.0625 C 341.800781 567.878906 341.71875 568.699219 341.71875 569.53125 L 341.71875 658.125 L 316.40625 658.125 Z M 316.40625 405 " fill-opacity="1" fill-rule="nonzero"/><path fill="#000000" d="M 354.375 531.5625 L 392.34375 531.5625 C 394 531.5625 395.65625 531.480469 397.304688 531.320312 C 398.957031 531.15625 400.59375 530.914062 402.21875 530.589844 C 403.847656 530.265625 405.453125 529.863281 407.039062 529.382812 C 408.625 528.902344 410.183594 528.34375 411.71875 527.707031 C 413.25 527.074219 414.746094 526.367188 416.207031 525.585938 C 417.671875 524.804688 419.089844 523.953125 420.46875 523.03125 C 421.847656 522.109375 423.179688 521.121094 424.460938 520.070312 C 425.742188 519.019531 426.96875 517.90625 428.140625 516.734375 C 429.3125 515.5625 430.425781 514.335938 431.476562 513.054688 C 432.527344 511.773438 433.515625 510.441406 434.4375 509.0625 C 435.359375 507.683594 436.210938 506.265625 436.992188 504.800781 C 437.773438 503.339844 438.480469 501.84375 439.113281 500.3125 C 439.75 498.777344 440.308594 497.21875 440.789062 495.632812 C 441.269531 494.046875 441.671875 492.441406 441.996094 490.8125 C 442.320312 489.1875 442.5625 487.550781 442.726562 485.898438 C 442.886719 484.25 442.96875 482.59375 442.96875 480.9375 C 442.96875 479.28125 442.886719 477.625 442.726562 475.976562 C 442.5625 474.324219 442.320312 472.6875 441.996094 471.0625 C 441.671875 469.433594 441.269531 467.828125 440.789062 466.242188 C 440.308594 464.65625 439.75 463.097656 439.113281 461.5625 C 438.480469 460.03125 437.773438 458.535156 436.992188 457.074219 C 436.210938 455.609375 435.359375 454.191406 434.4375 452.8125 C 433.515625 451.433594 432.527344 450.101562 431.476562 448.820312 C 430.425781 447.539062 429.3125 446.3125 428.140625 445.140625 C 426.96875 443.96875 425.742188 442.855469 424.460938 441.804688 C 423.179688 440.753906 421.847656 439.765625 420.46875 438.84375 C 419.089844 437.921875 417.671875 437.070312 416.207031 436.289062 C 414.746094 435.507812 413.25 434.800781 411.71875 434.167969 C 410.183594 433.53125 408.625 432.972656 407.039062 432.492188 C 405.453125 432.011719 403.847656 431.609375 402.21875 431.285156 C 400.59375 430.960938 398.957031 430.71875 397.304688 430.554688 C 395.65625 430.394531 394 430.3125 392.34375 430.3125 L 354.375 430.3125 C 353.542969 430.3125 352.722656 430.394531 351.90625 430.554688 C 351.089844 430.71875 350.300781 430.957031 349.53125 431.277344 C 348.765625 431.59375 348.035156 431.984375 347.34375 432.445312 C 346.652344 432.90625 346.011719 433.433594 345.425781 434.019531 C 344.839844 434.605469 344.3125 435.246094 343.851562 435.9375 C 343.390625 436.628906 343 437.359375 342.683594 438.125 C 342.363281 438.894531 342.125 439.683594 341.960938 440.5 C 341.800781 441.316406 341.71875 442.136719 341.71875 442.96875 L 341.71875 518.90625 C 341.71875 519.738281 341.800781 520.558594 341.960938 521.375 C 342.125 522.191406 342.363281 522.980469 342.683594 523.75 C 343 524.515625 343.390625 525.246094 343.851562 525.9375 C 344.3125 526.628906 344.839844 527.269531 345.425781 527.855469 C 346.011719 528.441406 346.652344 528.96875 347.34375 529.429688 C 348.035156 529.890625 348.765625 530.28125 349.53125 530.597656 C 350.300781 530.917969 351.089844 531.15625 351.90625 531.320312 C 352.722656 531.480469 353.542969 531.5625 354.375 531.5625 Z M 367.03125 455.625 L 392.34375 455.625 C 393.171875 455.625 394 455.664062 394.824219 455.746094 C 395.648438 455.828125 396.46875 455.949219 397.28125 456.109375 C 398.09375 456.273438 398.898438 456.472656 399.691406 456.714844 C 400.484375 456.957031 401.265625 457.234375 402.03125 457.550781 C 402.796875 457.867188 403.542969 458.222656 404.277344 458.613281 C 405.007812 459.003906 405.71875 459.429688 406.40625 459.890625 C 407.097656 460.351562 407.761719 460.84375 408.402344 461.371094 C 409.042969 461.898438 409.65625 462.453125 410.242188 463.039062 C 410.828125 463.625 411.382812 464.238281 411.910156 464.878906 C 412.4375 465.519531 412.929688 466.183594 413.390625 466.875 C 413.851562 467.5625 414.277344 468.273438 414.667969 469.003906 C 415.058594 469.738281 415.414062 470.484375 415.730469 471.25 C 416.046875 472.015625 416.324219 472.796875 416.566406 473.589844 C 416.808594 474.382812 417.007812 475.1875 417.167969 476 C 417.332031 476.8125 417.453125 477.632812 417.535156 478.457031 C 417.617188 479.28125 417.65625 480.109375 417.65625 480.9375 C 417.65625 481.765625 417.617188 482.59375 417.535156 483.417969 C 417.453125 484.242188 417.332031 485.0625 417.167969 485.875 C 417.007812 486.6875 416.808594 487.492188 416.566406 488.285156 C 416.324219 489.078125 416.046875 489.859375 415.730469 490.625 C 415.414062 491.390625 415.058594 492.136719 414.667969 492.871094 C 414.277344 493.601562 413.851562 494.3125 413.390625 495 C 412.929688 495.691406 412.4375 496.355469 411.910156 496.996094 C 411.382812 497.636719 410.828125 498.25 410.242188 498.835938 C 409.65625 499.421875 409.042969 499.976562 408.402344 500.503906 C 407.761719 501.03125 407.097656 501.523438 406.40625 501.984375 C 405.71875 502.445312 405.007812 502.871094 404.277344 503.261719 C 403.542969 503.652344 402.796875 504.007812 402.03125 504.324219 C 401.265625 504.640625 400.484375 504.917969 399.691406 505.160156 C 398.898438 505.402344 398.09375 505.601562 397.28125 505.761719 C 396.46875 505.925781 395.648438 506.046875 394.824219 506.128906 C 394 506.210938 393.171875 506.25 392.34375 506.25 L 367.03125 506.25 Z M 367.03125 455.625 " fill-opacity="1" fill-rule="nonzero"/><path fill="#000000" d="M 569.53125 683.4375 C 570.363281 683.4375 571.183594 683.355469 572 683.195312 C 572.816406 683.03125 573.605469 682.792969 574.375 682.472656 C 575.140625 682.15625 575.871094 681.765625 576.5625 681.304688 C 577.253906 680.84375 577.894531 680.316406 578.480469 679.730469 C 579.066406 679.144531 579.59375 678.503906 580.054688 677.8125 C 580.515625 677.121094 580.90625 676.390625 581.222656 675.625 C 581.542969 674.855469 581.78125 674.066406 581.945312 673.25 C 582.105469 672.433594 582.1875 671.613281 582.1875 670.78125 L 582.1875 547.890625 C 583.324219 546.503906 584.539062 545.195312 585.835938 543.957031 C 587.128906 542.71875 588.492188 541.5625 589.925781 540.484375 C 591.355469 539.410156 592.847656 538.421875 594.398438 537.523438 C 595.945312 536.625 597.542969 535.824219 599.1875 535.117188 C 600.835938 534.40625 602.515625 533.800781 604.234375 533.292969 C 605.953125 532.785156 607.695312 532.382812 609.460938 532.085938 C 611.226562 531.785156 613.003906 531.589844 614.792969 531.503906 C 616.582031 531.417969 618.371094 531.4375 620.15625 531.5625 C 620.988281 531.5625 621.808594 531.480469 622.625 531.320312 C 623.441406 531.15625 624.230469 530.917969 625 530.597656 C 625.765625 530.28125 626.496094 529.890625 627.1875 529.429688 C 627.878906 528.96875 628.519531 528.441406 629.105469 527.855469 C 629.691406 527.269531 630.21875 526.628906 630.679688 525.9375 C 631.140625 525.246094 631.53125 524.515625 631.847656 523.75 C 632.167969 522.980469 632.40625 522.191406 632.570312 521.375 C 632.730469 520.558594 632.8125 519.738281 632.8125 518.90625 L 632.8125 468.28125 C 632.8125 467.449219 632.730469 466.628906 632.570312 465.8125 C 632.40625 464.996094 632.167969 464.207031 631.847656 463.4375 C 631.53125 462.671875 631.140625 461.941406 630.679688 461.25 C 630.21875 460.558594 629.691406 459.917969 629.105469 459.332031 C 628.519531 458.746094 627.878906 458.21875 627.1875 457.757812 C 626.496094 457.296875 625.765625 456.90625 625 456.589844 C 624.230469 456.269531 623.441406 456.03125 622.625 455.867188 C 621.808594 455.707031 620.988281 455.625 620.15625 455.625 C 616.089844 455.695312 612.050781 456.046875 608.035156 456.675781 C 604.019531 457.304688 600.066406 458.210938 596.171875 459.386719 C 592.28125 460.5625 588.488281 462.003906 584.796875 463.703125 C 581.105469 465.40625 577.546875 467.351562 574.125 469.546875 C 571.726562 465.828125 568.960938 462.414062 565.824219 459.296875 C 564.632812 458.117188 563.261719 457.207031 561.714844 456.570312 C 560.164062 455.9375 558.550781 455.621094 556.875 455.625 L 518.90625 455.625 C 518.074219 455.625 517.253906 455.707031 516.4375 455.867188 C 515.621094 456.03125 514.832031 456.269531 514.0625 456.589844 C 513.296875 456.90625 512.566406 457.296875 511.875 457.757812 C 511.183594 458.21875 510.542969 458.746094 509.957031 459.332031 C 509.371094 459.917969 508.84375 460.558594 508.382812 461.25 C 507.921875 461.941406 507.53125 462.671875 507.214844 463.4375 C 506.894531 464.207031 506.65625 464.996094 506.492188 465.8125 C 506.332031 466.628906 506.25 467.449219 506.25 468.28125 L 506.25 670.78125 C 506.25 671.613281 506.332031 672.433594 506.492188 673.25 C 506.65625 674.066406 506.894531 674.855469 507.214844 675.625 C 507.53125 676.390625 507.921875 677.121094 508.382812 677.8125 C 508.84375 678.503906 509.371094 679.144531 509.957031 679.730469 C 510.542969 680.316406 511.183594 680.84375 511.875 681.304688 C 512.566406 681.765625 513.296875 682.15625 514.0625 682.472656 C 514.832031 682.792969 515.621094 683.03125 516.4375 683.195312 C 517.253906 683.355469 518.074219 683.4375 518.90625 683.4375 Z M 531.5625 480.9375 L 551.191406 480.9375 C 552.699219 482.746094 553.9375 484.726562 554.902344 486.875 C 555.867188 489.023438 556.523438 491.265625 556.875 493.59375 C 556.867188 494.308594 556.917969 495.015625 557.03125 495.722656 C 557.144531 496.429688 557.3125 497.117188 557.542969 497.796875 C 557.773438 498.472656 558.054688 499.125 558.394531 499.753906 C 558.734375 500.378906 559.125 500.976562 559.566406 501.539062 C 560.003906 502.101562 560.488281 502.621094 561.019531 503.101562 C 561.546875 503.582031 562.113281 504.015625 562.714844 504.398438 C 563.316406 504.785156 563.945312 505.117188 564.601562 505.394531 C 565.261719 505.671875 565.9375 505.890625 566.632812 506.054688 C 567.328125 506.21875 568.03125 506.324219 568.742188 506.367188 C 569.457031 506.414062 570.167969 506.394531 570.878906 506.320312 C 571.589844 506.246094 572.285156 506.109375 572.972656 505.914062 C 573.660156 505.71875 574.328125 505.46875 574.972656 505.164062 C 575.617188 504.855469 576.230469 504.496094 576.816406 504.085938 C 577.398438 503.675781 577.945312 503.21875 578.449219 502.714844 C 578.957031 502.210938 579.417969 501.667969 579.832031 501.085938 C 580.246094 500.503906 580.609375 499.894531 580.921875 499.25 C 582.402344 496.984375 584.109375 494.902344 586.042969 493.003906 C 587.976562 491.105469 590.089844 489.4375 592.382812 488 C 594.675781 486.558594 597.097656 485.382812 599.648438 484.464844 C 602.195312 483.550781 604.8125 482.917969 607.5 482.570312 L 607.5 507.109375 C 604.980469 507.363281 602.484375 507.761719 600.007812 508.304688 C 597.535156 508.851562 595.101562 509.539062 592.710938 510.367188 C 590.316406 511.195312 587.980469 512.160156 585.699219 513.265625 C 583.421875 514.367188 581.210938 515.597656 579.074219 516.960938 C 576.941406 518.320312 574.890625 519.800781 572.929688 521.402344 C 570.964844 523.003906 569.101562 524.714844 567.339844 526.53125 C 565.578125 528.351562 563.925781 530.265625 562.386719 532.277344 C 560.851562 534.289062 559.433594 536.382812 558.140625 538.5625 C 557.273438 540.347656 556.851562 542.234375 556.875 544.21875 L 556.875 658.125 L 531.5625 658.125 Z M 531.5625 480.9375 " fill-opacity="1" fill-rule="nonzero"/><path fill="#000000" d="M 227.8125 172.972656 L 253.125 206.714844 L 253.125 215.15625 L 278.4375 215.15625 L 278.4375 202.5 C 278.4375 201.128906 278.222656 199.796875 277.789062 198.496094 C 277.355469 197.199219 276.726562 196 275.90625 194.90625 L 251.859375 162.796875 C 252.933594 162.460938 253.988281 162.078125 255.027344 161.648438 C 256.0625 161.21875 257.082031 160.746094 258.078125 160.226562 C 259.074219 159.707031 260.046875 159.144531 260.992188 158.539062 C 261.9375 157.929688 262.855469 157.285156 263.746094 156.597656 C 264.632812 155.910156 265.492188 155.183594 266.316406 154.421875 C 267.140625 153.65625 267.929688 152.859375 268.683594 152.023438 C 269.4375 151.191406 270.152344 150.324219 270.828125 149.429688 C 271.503906 148.53125 272.140625 147.605469 272.734375 146.652344 C 273.328125 145.699219 273.878906 144.71875 274.386719 143.71875 C 274.894531 142.714844 275.359375 141.691406 275.777344 140.648438 C 276.191406 139.605469 276.5625 138.546875 276.886719 137.46875 C 277.207031 136.390625 277.480469 135.304688 277.707031 134.203125 C 277.933594 133.101562 278.113281 131.992188 278.238281 130.878906 C 278.367188 129.761719 278.445312 128.640625 278.472656 127.515625 C 278.5 126.394531 278.480469 125.273438 278.410156 124.148438 C 278.335938 123.027344 278.214844 121.914062 278.046875 120.800781 C 277.875 119.691406 277.65625 118.589844 277.386719 117.5 C 277.121094 116.40625 276.804688 115.328125 276.4375 114.265625 C 276.074219 113.203125 275.664062 112.160156 275.207031 111.132812 C 274.75 110.105469 274.25 109.101562 273.703125 108.117188 C 273.160156 107.136719 272.570312 106.179688 271.9375 105.25 C 271.308594 104.320312 270.636719 103.417969 269.925781 102.550781 C 269.214844 101.679688 268.46875 100.839844 267.683594 100.039062 C 266.898438 99.234375 266.078125 98.464844 265.226562 97.734375 C 264.371094 97.003906 263.488281 96.3125 262.574219 95.65625 C 261.660156 95.003906 260.71875 94.394531 259.75 93.824219 C 258.78125 93.253906 257.789062 92.730469 256.773438 92.25 C 255.757812 91.769531 254.722656 91.332031 253.667969 90.945312 C 252.613281 90.554688 251.542969 90.210938 250.457031 89.917969 C 249.375 89.625 248.277344 89.378906 247.171875 89.183594 C 246.066406 88.984375 244.953125 88.835938 243.832031 88.738281 C 242.714844 88.640625 241.59375 88.59375 240.46875 88.59375 L 215.15625 88.59375 C 214.324219 88.59375 213.503906 88.675781 212.6875 88.835938 C 211.871094 89 211.082031 89.238281 210.3125 89.558594 C 209.546875 89.875 208.816406 90.265625 208.125 90.726562 C 207.433594 91.1875 206.792969 91.714844 206.207031 92.300781 C 205.621094 92.886719 205.09375 93.527344 204.632812 94.21875 C 204.171875 94.910156 203.78125 95.640625 203.464844 96.40625 C 203.144531 97.175781 202.90625 97.964844 202.742188 98.78125 C 202.582031 99.597656 202.5 100.417969 202.5 101.25 L 202.5 215.15625 L 227.8125 215.15625 Z M 227.8125 113.90625 L 240.46875 113.90625 C 241.300781 113.90625 242.121094 113.988281 242.9375 114.148438 C 243.753906 114.3125 244.542969 114.550781 245.3125 114.871094 C 246.078125 115.1875 246.808594 115.578125 247.5 116.039062 C 248.191406 116.5 248.832031 117.027344 249.417969 117.613281 C 250.003906 118.199219 250.53125 118.839844 250.992188 119.53125 C 251.453125 120.222656 251.84375 120.953125 252.160156 121.71875 C 252.480469 122.488281 252.71875 123.277344 252.882812 124.09375 C 253.042969 124.910156 253.125 125.730469 253.125 126.5625 C 253.125 127.394531 253.042969 128.214844 252.882812 129.03125 C 252.71875 129.847656 252.480469 130.636719 252.160156 131.40625 C 251.84375 132.171875 251.453125 132.902344 250.992188 133.59375 C 250.53125 134.285156 250.003906 134.925781 249.417969 135.511719 C 248.832031 136.097656 248.191406 136.625 247.5 137.085938 C 246.808594 137.546875 246.078125 137.9375 245.3125 138.253906 C 244.542969 138.574219 243.753906 138.8125 242.9375 138.976562 C 242.121094 139.136719 241.300781 139.21875 240.46875 139.21875 L 227.8125 139.21875 Z M 227.8125 113.90625 " fill-opacity="1" fill-rule="nonzero"/><path fill="#000000" d="M 126.5625 164.53125 L 151.875 164.53125 C 153.117188 164.53125 154.359375 164.46875 155.597656 164.347656 C 156.835938 164.226562 158.0625 164.042969 159.28125 163.800781 C 160.5 163.558594 161.707031 163.257812 162.898438 162.894531 C 164.085938 162.535156 165.257812 162.117188 166.40625 161.640625 C 167.554688 161.164062 168.675781 160.632812 169.773438 160.046875 C 170.871094 159.460938 171.933594 158.824219 172.96875 158.132812 C 174.003906 157.441406 175 156.703125 175.960938 155.914062 C 176.921875 155.125 177.84375 154.289062 178.722656 153.410156 C 179.601562 152.53125 180.4375 151.609375 181.226562 150.648438 C 182.015625 149.6875 182.753906 148.691406 183.445312 147.65625 C 184.136719 146.621094 184.773438 145.558594 185.359375 144.460938 C 185.945312 143.363281 186.476562 142.242188 186.953125 141.09375 C 187.429688 139.945312 187.847656 138.773438 188.207031 137.585938 C 188.570312 136.394531 188.871094 135.191406 189.113281 133.96875 C 189.355469 132.75 189.539062 131.523438 189.660156 130.285156 C 189.78125 129.046875 189.84375 127.804688 189.84375 126.5625 C 189.84375 125.320312 189.78125 124.078125 189.660156 122.839844 C 189.539062 121.601562 189.355469 120.375 189.113281 119.15625 C 188.871094 117.933594 188.570312 116.730469 188.207031 115.539062 C 187.847656 114.351562 187.429688 113.179688 186.953125 112.03125 C 186.476562 110.882812 185.945312 109.761719 185.359375 108.664062 C 184.773438 107.566406 184.136719 106.503906 183.445312 105.46875 C 182.753906 104.433594 182.015625 103.4375 181.226562 102.476562 C 180.4375 101.515625 179.601562 100.59375 178.722656 99.714844 C 177.84375 98.835938 176.921875 98 175.960938 97.210938 C 175 96.421875 174.003906 95.683594 172.96875 94.992188 C 171.933594 94.300781 170.871094 93.664062 169.773438 93.078125 C 168.675781 92.492188 167.554688 91.960938 166.40625 91.484375 C 165.257812 91.007812 164.085938 90.589844 162.898438 90.230469 C 161.707031 89.867188 160.5 89.566406 159.28125 89.324219 C 158.0625 89.082031 156.835938 88.898438 155.597656 88.777344 C 154.359375 88.65625 153.117188 88.59375 151.875 88.59375 L 113.90625 88.59375 C 113.074219 88.59375 112.253906 88.675781 111.4375 88.835938 C 110.621094 89 109.832031 89.238281 109.0625 89.558594 C 108.296875 89.875 107.566406 90.265625 106.875 90.726562 C 106.183594 91.1875 105.542969 91.714844 104.957031 92.300781 C 104.371094 92.886719 103.84375 93.527344 103.382812 94.21875 C 102.921875 94.910156 102.53125 95.640625 102.214844 96.40625 C 101.894531 97.175781 101.65625 97.964844 101.492188 98.78125 C 101.332031 99.597656 101.25 100.417969 101.25 101.25 L 101.25 215.15625 L 126.5625 215.15625 Z M 126.5625 113.90625 L 151.875 113.90625 C 152.707031 113.90625 153.527344 113.988281 154.34375 114.148438 C 155.160156 114.3125 155.949219 114.550781 156.71875 114.871094 C 157.484375 115.1875 158.214844 115.578125 158.90625 116.039062 C 159.597656 116.5 160.238281 117.027344 160.824219 117.613281 C 161.410156 118.199219 161.9375 118.839844 162.398438 119.53125 C 162.859375 120.222656 163.25 120.953125 163.566406 121.71875 C 163.886719 122.488281 164.125 123.277344 164.289062 124.09375 C 164.449219 124.910156 164.53125 125.730469 164.53125 126.5625 C 164.53125 127.394531 164.449219 128.214844 164.289062 129.03125 C 164.125 129.847656 163.886719 130.636719 163.566406 131.40625 C 163.25 132.171875 162.859375 132.902344 162.398438 133.59375 C 161.9375 134.285156 161.410156 134.925781 160.824219 135.511719 C 160.238281 136.097656 159.597656 136.625 158.90625 137.085938 C 158.214844 137.546875 157.484375 137.9375 156.71875 138.253906 C 155.949219 138.574219 155.160156 138.8125 154.34375 138.976562 C 153.527344 139.136719 152.707031 139.21875 151.875 139.21875 L 126.5625 139.21875 Z M 126.5625 113.90625 " fill-opacity="1" fill-rule="nonzero"/><path fill="#000000" d="M 442.96875 215.15625 C 444.210938 215.15625 445.453125 215.09375 446.691406 214.972656 C 447.929688 214.851562 449.15625 214.667969 450.375 214.425781 C 451.59375 214.183594 452.800781 213.882812 453.992188 213.519531 C 455.179688 213.160156 456.351562 212.742188 457.5 212.265625 C 458.648438 211.789062 459.769531 211.257812 460.867188 210.671875 C 461.964844 210.085938 463.027344 209.449219 464.0625 208.757812 C 465.097656 208.066406 466.09375 207.328125 467.054688 206.539062 C 468.015625 205.75 468.9375 204.914062 469.816406 204.035156 C 470.695312 203.15625 471.53125 202.234375 472.320312 201.273438 C 473.109375 200.3125 473.847656 199.316406 474.539062 198.28125 C 475.230469 197.246094 475.867188 196.183594 476.453125 195.085938 C 477.039062 193.988281 477.570312 192.867188 478.046875 191.71875 C 478.523438 190.570312 478.941406 189.398438 479.300781 188.210938 C 479.664062 187.019531 479.964844 185.816406 480.207031 184.59375 C 480.449219 183.375 480.632812 182.148438 480.753906 180.910156 C 480.875 179.671875 480.9375 178.429688 480.9375 177.1875 L 480.9375 88.59375 L 455.625 88.59375 L 455.625 177.1875 C 455.625 178.019531 455.542969 178.839844 455.382812 179.65625 C 455.21875 180.472656 454.980469 181.261719 454.660156 182.03125 C 454.34375 182.796875 453.953125 183.527344 453.492188 184.21875 C 453.03125 184.910156 452.503906 185.550781 451.917969 186.136719 C 451.332031 186.722656 450.691406 187.25 450 187.710938 C 449.308594 188.171875 448.578125 188.5625 447.8125 188.878906 C 447.042969 189.199219 446.253906 189.4375 445.4375 189.601562 C 444.621094 189.761719 443.800781 189.84375 442.96875 189.84375 C 442.136719 189.84375 441.316406 189.761719 440.5 189.601562 C 439.683594 189.4375 438.894531 189.199219 438.125 188.878906 C 437.359375 188.5625 436.628906 188.171875 435.9375 187.710938 C 435.246094 187.25 434.605469 186.722656 434.019531 186.136719 C 433.433594 185.550781 432.90625 184.910156 432.445312 184.21875 C 431.984375 183.527344 431.59375 182.796875 431.277344 182.03125 C 430.957031 181.261719 430.71875 180.472656 430.554688 179.65625 C 430.394531 178.839844 430.3125 178.019531 430.3125 177.1875 L 430.3125 164.53125 L 405 164.53125 L 405 177.1875 C 405 178.429688 405.0625 179.671875 405.183594 180.910156 C 405.304688 182.148438 405.488281 183.375 405.730469 184.59375 C 405.972656 185.816406 406.273438 187.019531 406.636719 188.210938 C 406.996094 189.398438 407.414062 190.570312 407.890625 191.71875 C 408.367188 192.867188 408.898438 193.988281 409.484375 195.085938 C 410.070312 196.183594 410.707031 197.246094 411.398438 198.28125 C 412.089844 199.316406 412.828125 200.3125 413.617188 201.273438 C 414.40625 202.234375 415.242188 203.15625 416.121094 204.035156 C 417 204.914062 417.921875 205.75 418.882812 206.539062 C 419.84375 207.328125 420.839844 208.066406 421.875 208.757812 C 422.910156 209.449219 423.972656 210.085938 425.070312 210.671875 C 426.167969 211.257812 427.289062 211.789062 428.4375 212.265625 C 429.585938 212.742188 430.757812 213.160156 431.945312 213.519531 C 433.136719 213.882812 434.339844 214.183594 435.5625 214.425781 C 436.78125 214.667969 438.007812 214.851562 439.246094 214.972656 C 440.484375 215.09375 441.726562 215.15625 442.96875 215.15625 Z M 442.96875 215.15625 " fill-opacity="1" fill-rule="nonzero"/><path fill="#000000" d="M 341.71875 215.15625 C 343.375 215.15625 345.03125 215.074219 346.679688 214.914062 C 348.332031 214.75 349.96875 214.507812 351.59375 214.183594 C 353.222656 213.859375 354.828125 213.457031 356.414062 212.976562 C 358 212.496094 359.558594 211.9375 361.09375 211.300781 C 362.625 210.667969 364.121094 209.960938 365.582031 209.179688 C 367.046875 208.398438 368.464844 207.546875 369.84375 206.625 C 371.222656 205.703125 372.554688 204.714844 373.835938 203.664062 C 375.117188 202.613281 376.34375 201.5 377.515625 200.328125 C 378.6875 199.15625 379.800781 197.929688 380.851562 196.648438 C 381.902344 195.367188 382.890625 194.035156 383.8125 192.65625 C 384.734375 191.277344 385.585938 189.859375 386.367188 188.394531 C 387.148438 186.933594 387.855469 185.4375 388.488281 183.90625 C 389.125 182.371094 389.683594 180.8125 390.164062 179.226562 C 390.644531 177.640625 391.046875 176.035156 391.371094 174.40625 C 391.695312 172.78125 391.9375 171.144531 392.101562 169.492188 C 392.261719 167.84375 392.34375 166.1875 392.34375 164.53125 L 392.34375 139.21875 C 392.34375 137.5625 392.261719 135.90625 392.101562 134.257812 C 391.9375 132.605469 391.695312 130.96875 391.371094 129.34375 C 391.046875 127.714844 390.644531 126.109375 390.164062 124.523438 C 389.683594 122.9375 389.125 121.378906 388.488281 119.84375 C 387.855469 118.3125 387.148438 116.816406 386.367188 115.355469 C 385.585938 113.890625 384.734375 112.472656 383.8125 111.09375 C 382.890625 109.714844 381.902344 108.382812 380.851562 107.101562 C 379.800781 105.820312 378.6875 104.59375 377.515625 103.421875 C 376.34375 102.25 375.117188 101.136719 373.835938 100.085938 C 372.554688 99.035156 371.222656 98.046875 369.84375 97.125 C 368.464844 96.203125 367.046875 95.351562 365.582031 94.570312 C 364.121094 93.789062 362.625 93.082031 361.09375 92.449219 C 359.558594 91.8125 358 91.253906 356.414062 90.773438 C 354.828125 90.292969 353.222656 89.890625 351.59375 89.566406 C 349.96875 89.242188 348.332031 89 346.679688 88.835938 C 345.03125 88.675781 343.375 88.59375 341.71875 88.59375 C 340.0625 88.59375 338.40625 88.675781 336.757812 88.835938 C 335.105469 89 333.46875 89.242188 331.84375 89.566406 C 330.214844 89.890625 328.609375 90.292969 327.023438 90.773438 C 325.4375 91.253906 323.878906 91.8125 322.34375 92.449219 C 320.8125 93.082031 319.316406 93.789062 317.855469 94.570312 C 316.390625 95.351562 314.972656 96.203125 313.59375 97.125 C 312.214844 98.046875 310.882812 99.035156 309.601562 100.085938 C 308.320312 101.136719 307.09375 102.25 305.921875 103.421875 C 304.75 104.59375 303.636719 105.820312 302.585938 107.101562 C 301.535156 108.382812 300.546875 109.714844 299.625 111.09375 C 298.703125 112.472656 297.851562 113.890625 297.070312 115.355469 C 296.289062 116.816406 295.582031 118.3125 294.949219 119.84375 C 294.3125 121.378906 293.753906 122.9375 293.273438 124.523438 C 292.792969 126.109375 292.390625 127.714844 292.066406 129.34375 C 291.742188 130.96875 291.5 132.605469 291.335938 134.257812 C 291.175781 135.90625 291.09375 137.5625 291.09375 139.21875 L 291.09375 164.53125 C 291.09375 166.1875 291.175781 167.84375 291.335938 169.492188 C 291.5 171.144531 291.742188 172.78125 292.066406 174.40625 C 292.390625 176.035156 292.792969 177.640625 293.273438 179.226562 C 293.753906 180.8125 294.3125 182.371094 294.949219 183.90625 C 295.582031 185.4375 296.289062 186.933594 297.070312 188.394531 C 297.851562 189.859375 298.703125 191.277344 299.625 192.65625 C 300.546875 194.035156 301.535156 195.367188 302.585938 196.648438 C 303.636719 197.929688 304.75 199.15625 305.921875 200.328125 C 307.09375 201.5 308.320312 202.613281 309.601562 203.664062 C 310.882812 204.714844 312.214844 205.703125 313.59375 206.625 C 314.972656 207.546875 316.390625 208.398438 317.855469 209.179688 C 319.316406 209.960938 320.8125 210.667969 322.34375 211.300781 C 323.878906 211.9375 325.4375 212.496094 327.023438 212.976562 C 328.609375 213.457031 330.214844 213.859375 331.84375 214.183594 C 333.46875 214.507812 335.105469 214.75 336.757812 214.914062 C 338.40625 215.074219 340.0625 215.15625 341.71875 215.15625 Z M 316.40625 139.21875 C 316.40625 138.390625 316.445312 137.5625 316.527344 136.738281 C 316.609375 135.914062 316.730469 135.09375 316.894531 134.28125 C 317.054688 133.46875 317.253906 132.664062 317.496094 131.871094 C 317.738281 131.078125 318.015625 130.296875 318.332031 129.53125 C 318.648438 128.765625 319.003906 128.019531 319.394531 127.285156 C 319.785156 126.554688 320.210938 125.84375 320.671875 125.15625 C 321.132812 124.464844 321.625 123.800781 322.152344 123.160156 C 322.679688 122.519531 323.234375 121.90625 323.820312 121.320312 C 324.40625 120.734375 325.019531 120.179688 325.660156 119.652344 C 326.300781 119.125 326.964844 118.632812 327.65625 118.171875 C 328.34375 117.710938 329.054688 117.285156 329.785156 116.894531 C 330.519531 116.503906 331.265625 116.148438 332.03125 115.832031 C 332.796875 115.515625 333.578125 115.238281 334.371094 114.996094 C 335.164062 114.753906 335.96875 114.554688 336.78125 114.394531 C 337.59375 114.230469 338.414062 114.109375 339.238281 114.027344 C 340.0625 113.945312 340.890625 113.90625 341.71875 113.90625 C 342.546875 113.90625 343.375 113.945312 344.199219 114.027344 C 345.023438 114.109375 345.84375 114.230469 346.65625 114.394531 C 347.46875 114.554688 348.273438 114.753906 349.066406 114.996094 C 349.859375 115.238281 350.640625 115.515625 351.40625 115.832031 C 352.171875 116.148438 352.917969 116.503906 353.652344 116.894531 C 354.382812 117.285156 355.09375 117.710938 355.78125 118.171875 C 356.472656 118.632812 357.136719 119.125 357.777344 119.652344 C 358.417969 120.179688 359.03125 120.734375 359.617188 121.320312 C 360.203125 121.90625 360.757812 122.519531 361.285156 123.160156 C 361.8125 123.800781 362.304688 124.464844 362.765625 125.15625 C 363.226562 125.84375 363.652344 126.554688 364.042969 127.285156 C 364.433594 128.019531 364.789062 128.765625 365.105469 129.53125 C 365.421875 130.296875 365.699219 131.078125 365.941406 131.871094 C 366.183594 132.664062 366.382812 133.46875 366.542969 134.28125 C 366.707031 135.09375 366.828125 135.914062 366.910156 136.738281 C 366.992188 137.5625 367.03125 138.390625 367.03125 139.21875 L 367.03125 164.53125 C 367.03125 165.359375 366.992188 166.1875 366.910156 167.011719 C 366.828125 167.835938 366.707031 168.65625 366.542969 169.46875 C 366.382812 170.28125 366.183594 171.085938 365.941406 171.878906 C 365.699219 172.671875 365.421875 173.453125 365.105469 174.21875 C 364.789062 174.984375 364.433594 175.730469 364.042969 176.464844 C 363.652344 177.195312 363.226562 177.90625 362.765625 178.59375 C 362.304688 179.285156 361.8125 179.949219 361.285156 180.589844 C 360.757812 181.230469 360.203125 181.84375 359.617188 182.429688 C 359.03125 183.015625 358.417969 183.570312 357.777344 184.097656 C 357.136719 184.625 356.472656 185.117188 355.78125 185.578125 C 355.09375 186.039062 354.382812 186.464844 353.652344 186.855469 C 352.917969 187.246094 352.171875 187.601562 351.40625 187.917969 C 350.640625 188.234375 349.859375 188.511719 349.066406 188.753906 C 348.273438 188.996094 347.46875 189.195312 346.65625 189.355469 C 345.84375 189.519531 345.023438 189.640625 344.199219 189.722656 C 343.375 189.804688 342.546875 189.84375 341.71875 189.84375 C 340.890625 189.84375 340.0625 189.804688 339.238281 189.722656 C 338.414062 189.640625 337.59375 189.519531 336.78125 189.355469 C 335.96875 189.195312 335.164062 188.996094 334.371094 188.753906 C 333.578125 188.511719 332.796875 188.234375 332.03125 187.917969 C 331.265625 187.601562 330.519531 187.246094 329.785156 186.855469 C 329.054688 186.464844 328.34375 186.039062 327.65625 185.578125 C 326.964844 185.117188 326.300781 184.625 325.660156 184.097656 C 325.019531 183.570312 324.40625 183.015625 323.820312 182.429688 C 323.234375 181.84375 322.679688 181.230469 322.152344 180.589844 C 321.625 179.949219 321.132812 179.285156 320.671875 178.59375 C 320.210938 177.90625 319.785156 177.195312 319.394531 176.464844 C 319.003906 175.730469 318.648438 174.984375 318.332031 174.21875 C 318.015625 173.453125 317.738281 172.671875 317.496094 171.878906 C 317.253906 171.085938 317.054688 170.28125 316.894531 169.46875 C 316.730469 168.65625 316.609375 167.835938 316.527344 167.011719 C 316.445312 166.1875 316.40625 165.359375 316.40625 164.53125 Z M 316.40625 139.21875 " fill-opacity="1" fill-rule="nonzero"/></svg>